%TF.GenerationSoftware,KiCad,Pcbnew,(6.0.0-rc1-76-g1e8284bc1a)*%
%TF.CreationDate,2022-09-28T09:07:56+05:30*%
%TF.ProjectId,extension_Board,65787465-6e73-4696-9f6e-5f426f617264,rev?*%
%TF.SameCoordinates,Original*%
%TF.FileFunction,Copper,L1,Top*%
%TF.FilePolarity,Positive*%
%FSLAX46Y46*%
G04 Gerber Fmt 4.6, Leading zero omitted, Abs format (unit mm)*
G04 Created by KiCad (PCBNEW (6.0.0-rc1-76-g1e8284bc1a)) date 2022-09-28 09:07:56*
%MOMM*%
%LPD*%
G01*
G04 APERTURE LIST*
G04 Aperture macros list*
%AMRoundRect*
0 Rectangle with rounded corners*
0 $1 Rounding radius*
0 $2 $3 $4 $5 $6 $7 $8 $9 X,Y pos of 4 corners*
0 Add a 4 corners polygon primitive as box body*
4,1,4,$2,$3,$4,$5,$6,$7,$8,$9,$2,$3,0*
0 Add four circle primitives for the rounded corners*
1,1,$1+$1,$2,$3*
1,1,$1+$1,$4,$5*
1,1,$1+$1,$6,$7*
1,1,$1+$1,$8,$9*
0 Add four rect primitives between the rounded corners*
20,1,$1+$1,$2,$3,$4,$5,0*
20,1,$1+$1,$4,$5,$6,$7,0*
20,1,$1+$1,$6,$7,$8,$9,0*
20,1,$1+$1,$8,$9,$2,$3,0*%
G04 Aperture macros list end*
%TA.AperFunction,ComponentPad*%
%ADD10RoundRect,0.250000X-0.620000X-0.845000X0.620000X-0.845000X0.620000X0.845000X-0.620000X0.845000X0*%
%TD*%
%TA.AperFunction,ComponentPad*%
%ADD11O,1.740000X2.190000*%
%TD*%
%TA.AperFunction,SMDPad,CuDef*%
%ADD12C,0.750000*%
%TD*%
%TA.AperFunction,ComponentPad*%
%ADD13C,6.000000*%
%TD*%
%TA.AperFunction,Conductor*%
%ADD14C,0.800000*%
%TD*%
%TA.AperFunction,Conductor*%
%ADD15C,0.600000*%
%TD*%
G04 APERTURE END LIST*
D10*
%TO.P,J6,1,Pin_1*%
%TO.N,/M1+*%
X49000000Y-56500000D03*
D11*
%TO.P,J6,2,Pin_2*%
%TO.N,/M1-*%
X51540000Y-56500000D03*
%TD*%
D12*
%TO.P,FID1,*%
%TO.N,*%
X77500000Y-34500000D03*
%TD*%
D13*
%TO.P,H3,1*%
%TO.N,GNDREF*%
X75500000Y-65500000D03*
%TD*%
D10*
%TO.P,J3,1,Pin_1*%
%TO.N,+24V*%
X54960000Y-43520000D03*
D11*
%TO.P,J3,2,Pin_2*%
%TO.N,/sensor2*%
X57500000Y-43520000D03*
%TO.P,J3,3,Pin_3*%
%TO.N,GNDREF*%
X60040000Y-43520000D03*
%TD*%
D13*
%TO.P,H2,1*%
%TO.N,GNDREF*%
X75500000Y-29500000D03*
%TD*%
D10*
%TO.P,J4,1,Pin_1*%
%TO.N,+24V*%
X68460000Y-43520000D03*
D11*
%TO.P,J4,2,Pin_2*%
%TO.N,/sensor3*%
X71000000Y-43520000D03*
%TO.P,J4,3,Pin_3*%
%TO.N,GNDREF*%
X73540000Y-43520000D03*
%TD*%
D10*
%TO.P,J5,1,Pin_1*%
%TO.N,/M2+*%
X64000000Y-56500000D03*
D11*
%TO.P,J5,2,Pin_2*%
%TO.N,/M2-*%
X66540000Y-56500000D03*
%TD*%
D13*
%TO.P,H4,1*%
%TO.N,GNDREF*%
X39500000Y-65500000D03*
%TD*%
%TO.P,H1,1*%
%TO.N,GNDREF*%
X39500000Y-29500000D03*
%TD*%
D10*
%TO.P,J2,1,Pin_1*%
%TO.N,+24V*%
X41460000Y-43520000D03*
D11*
%TO.P,J2,2,Pin_2*%
%TO.N,/sensor1*%
X44000000Y-43520000D03*
%TO.P,J2,3,Pin_3*%
%TO.N,GNDREF*%
X46540000Y-43520000D03*
%TD*%
D12*
%TO.P,FID2,*%
%TO.N,*%
X37500000Y-60500000D03*
%TD*%
D10*
%TO.P,J1,1,Pin_1*%
%TO.N,+24V*%
X46070000Y-29520000D03*
D11*
%TO.P,J1,2,Pin_2*%
%TO.N,GNDREF*%
X48610000Y-29520000D03*
%TO.P,J1,3,Pin_3*%
%TO.N,/sensor1*%
X51150000Y-29520000D03*
%TO.P,J1,4,Pin_4*%
%TO.N,/sensor2*%
X53690000Y-29520000D03*
%TO.P,J1,5,Pin_5*%
%TO.N,/sensor3*%
X56230000Y-29520000D03*
%TO.P,J1,6,Pin_6*%
%TO.N,/M1+*%
X58770000Y-29520000D03*
%TO.P,J1,7,Pin_7*%
%TO.N,/M1-*%
X61310000Y-29520000D03*
%TO.P,J1,8,Pin_8*%
%TO.N,/M2+*%
X63850000Y-29520000D03*
%TO.P,J1,9,Pin_9*%
%TO.N,/M2-*%
X66390000Y-29520000D03*
%TO.P,J1,10,Pin_10*%
%TO.N,GNDREF*%
X68930000Y-29520000D03*
%TD*%
D14*
%TO.N,+24V*%
X46070000Y-29930000D02*
X41460000Y-34540000D01*
X41460000Y-43520000D02*
X41460000Y-46960000D01*
X54960000Y-43520000D02*
X54960000Y-48040000D01*
X46070000Y-29520000D02*
X46070000Y-29930000D01*
X43000000Y-48500000D02*
X54500000Y-48500000D01*
X54500000Y-48500000D02*
X67500000Y-48500000D01*
X68460000Y-47540000D02*
X68460000Y-43520000D01*
X41460000Y-46960000D02*
X43000000Y-48500000D01*
X41460000Y-34540000D02*
X41460000Y-43520000D01*
X54960000Y-48040000D02*
X54500000Y-48500000D01*
X67500000Y-48500000D02*
X68460000Y-47540000D01*
D15*
%TO.N,/sensor1*%
X51150000Y-29520000D02*
X51150000Y-32350000D01*
X44000000Y-39500000D02*
X44000000Y-43520000D01*
X51150000Y-32350000D02*
X44000000Y-39500000D01*
%TO.N,/sensor2*%
X57500000Y-38734666D02*
X57500000Y-43520000D01*
X53690000Y-29520000D02*
X53690000Y-34924666D01*
X53690000Y-34924666D02*
X57500000Y-38734666D01*
%TO.N,/sensor3*%
X56230000Y-33730000D02*
X59000000Y-36500000D01*
X56230000Y-29520000D02*
X56230000Y-33730000D01*
X59000000Y-36500000D02*
X68000000Y-36500000D01*
X68000000Y-36500000D02*
X71000000Y-39500000D01*
X71000000Y-39500000D02*
X71000000Y-43520000D01*
%TD*%
%TA.AperFunction,Conductor*%
%TO.N,GNDREF*%
G36*
X75484344Y-25806969D02*
G01*
X75500099Y-25807962D01*
X75531779Y-25811965D01*
X75549404Y-25810237D01*
X75560177Y-25809181D01*
X75578653Y-25808732D01*
X75698400Y-25814614D01*
X75899505Y-25824494D01*
X75911801Y-25825704D01*
X76258738Y-25877168D01*
X76270844Y-25879575D01*
X76597523Y-25961404D01*
X76611065Y-25964796D01*
X76622897Y-25968385D01*
X76953120Y-26086541D01*
X76964544Y-26091273D01*
X77139987Y-26174251D01*
X77266833Y-26234245D01*
X77281593Y-26241226D01*
X77292498Y-26247055D01*
X77593323Y-26427363D01*
X77603604Y-26434233D01*
X77885303Y-26643155D01*
X77894861Y-26650999D01*
X78154728Y-26886528D01*
X78163472Y-26895272D01*
X78399001Y-27155139D01*
X78406845Y-27164697D01*
X78615767Y-27446396D01*
X78622637Y-27456677D01*
X78800796Y-27753916D01*
X78802945Y-27757502D01*
X78808772Y-27768403D01*
X78838410Y-27831068D01*
X78958727Y-28085456D01*
X78963459Y-28096880D01*
X79081615Y-28427103D01*
X79085204Y-28438934D01*
X79170425Y-28779156D01*
X79172832Y-28791262D01*
X79224295Y-29138194D01*
X79225506Y-29150495D01*
X79240685Y-29459465D01*
X79239843Y-29481426D01*
X79238035Y-29495741D01*
X79242386Y-29540110D01*
X79242987Y-29552489D01*
X79234217Y-42176183D01*
X79218059Y-65434162D01*
X79217066Y-65449863D01*
X79214455Y-65470540D01*
X79213035Y-65481779D01*
X79213722Y-65488786D01*
X79213722Y-65488790D01*
X79215819Y-65510177D01*
X79216268Y-65528653D01*
X79200507Y-65849500D01*
X79199296Y-65861801D01*
X79189022Y-65931063D01*
X79147834Y-66208729D01*
X79145425Y-66220844D01*
X79109036Y-66366116D01*
X79060204Y-66561065D01*
X79056615Y-66572897D01*
X78938459Y-66903120D01*
X78933727Y-66914544D01*
X78783774Y-67231593D01*
X78777945Y-67242498D01*
X78597637Y-67543323D01*
X78590767Y-67553604D01*
X78381845Y-67835303D01*
X78374001Y-67844861D01*
X78138472Y-68104728D01*
X78129728Y-68113472D01*
X77869861Y-68349001D01*
X77860303Y-68356845D01*
X77578604Y-68565767D01*
X77568323Y-68572637D01*
X77267498Y-68752945D01*
X77256593Y-68758774D01*
X76939544Y-68908727D01*
X76928120Y-68913459D01*
X76597897Y-69031615D01*
X76586066Y-69035204D01*
X76245844Y-69120425D01*
X76233738Y-69122832D01*
X75886801Y-69174296D01*
X75874505Y-69175506D01*
X75565535Y-69190685D01*
X75543574Y-69189843D01*
X75529259Y-69188035D01*
X75488568Y-69192025D01*
X75484560Y-69192418D01*
X75472264Y-69193019D01*
X39565597Y-69193019D01*
X39549805Y-69192025D01*
X39547414Y-69191723D01*
X39518221Y-69188035D01*
X39500596Y-69189763D01*
X39489823Y-69190819D01*
X39471347Y-69191268D01*
X39351600Y-69185386D01*
X39150495Y-69175506D01*
X39138199Y-69174296D01*
X38791262Y-69122832D01*
X38779156Y-69120425D01*
X38438934Y-69035204D01*
X38427103Y-69031615D01*
X38096880Y-68913459D01*
X38085456Y-68908727D01*
X37768407Y-68758774D01*
X37757502Y-68752945D01*
X37456677Y-68572637D01*
X37446396Y-68565767D01*
X37164697Y-68356845D01*
X37155139Y-68349001D01*
X36895272Y-68113472D01*
X36886528Y-68104728D01*
X36650999Y-67844861D01*
X36643155Y-67835303D01*
X36434233Y-67553604D01*
X36427363Y-67543323D01*
X36247055Y-67242498D01*
X36241226Y-67231593D01*
X36091273Y-66914544D01*
X36086541Y-66903120D01*
X35968385Y-66572897D01*
X35964796Y-66561065D01*
X35915964Y-66366116D01*
X35879575Y-66220844D01*
X35877166Y-66208729D01*
X35835979Y-65931063D01*
X35825704Y-65861801D01*
X35824493Y-65849500D01*
X35809315Y-65540535D01*
X35810157Y-65518574D01*
X35811965Y-65504259D01*
X35807574Y-65459473D01*
X35806973Y-65447202D01*
X35806011Y-60489455D01*
X36744825Y-60489455D01*
X36745512Y-60496462D01*
X36745512Y-60496465D01*
X36748311Y-60525010D01*
X36761255Y-60657025D01*
X36814402Y-60816791D01*
X36901624Y-60960812D01*
X36906513Y-60965875D01*
X36906514Y-60965876D01*
X36977825Y-61039720D01*
X37018586Y-61081929D01*
X37024483Y-61085788D01*
X37153577Y-61170266D01*
X37153581Y-61170268D01*
X37159475Y-61174125D01*
X37317289Y-61232815D01*
X37324270Y-61233746D01*
X37324272Y-61233747D01*
X37369812Y-61239823D01*
X37484183Y-61255083D01*
X37491194Y-61254445D01*
X37491198Y-61254445D01*
X37644843Y-61240462D01*
X37651864Y-61239823D01*
X37658566Y-61237645D01*
X37658568Y-61237645D01*
X37805298Y-61189970D01*
X37805301Y-61189969D01*
X37811997Y-61187793D01*
X37956623Y-61101578D01*
X37961717Y-61096727D01*
X37961721Y-61096724D01*
X38073454Y-60990322D01*
X38073455Y-60990320D01*
X38078554Y-60985465D01*
X38094934Y-60960812D01*
X38167836Y-60851085D01*
X38171731Y-60845223D01*
X38231521Y-60687823D01*
X38254955Y-60521088D01*
X38255249Y-60500000D01*
X38236481Y-60332676D01*
X38181108Y-60173668D01*
X38091884Y-60030879D01*
X38083723Y-60022661D01*
X37978205Y-59916403D01*
X37978201Y-59916400D01*
X37973242Y-59911406D01*
X37831079Y-59821187D01*
X37672462Y-59764706D01*
X37665474Y-59763873D01*
X37665471Y-59763872D01*
X37572300Y-59752762D01*
X37505273Y-59744769D01*
X37498270Y-59745505D01*
X37498269Y-59745505D01*
X37452712Y-59750293D01*
X37337821Y-59762369D01*
X37331155Y-59764638D01*
X37331152Y-59764639D01*
X37185098Y-59814360D01*
X37185095Y-59814361D01*
X37178431Y-59816630D01*
X37172436Y-59820318D01*
X37172432Y-59820320D01*
X37041021Y-59901165D01*
X37041019Y-59901167D01*
X37035022Y-59904856D01*
X36914724Y-60022661D01*
X36823515Y-60164190D01*
X36765927Y-60322409D01*
X36744825Y-60489455D01*
X35806011Y-60489455D01*
X35805054Y-55554663D01*
X47329500Y-55554663D01*
X47329501Y-57445336D01*
X47329821Y-57451673D01*
X47370541Y-57653623D01*
X47449711Y-57843817D01*
X47564316Y-58015011D01*
X47709989Y-58160684D01*
X47881183Y-58275289D01*
X48071377Y-58354459D01*
X48273327Y-58395179D01*
X48277993Y-58395415D01*
X48277998Y-58395416D01*
X48278075Y-58395420D01*
X48278093Y-58395420D01*
X48279663Y-58395500D01*
X48281260Y-58395500D01*
X49003398Y-58395499D01*
X49720336Y-58395499D01*
X49721892Y-58395420D01*
X49721909Y-58395420D01*
X49722003Y-58395415D01*
X49722005Y-58395415D01*
X49726673Y-58395179D01*
X49928623Y-58354459D01*
X50118817Y-58275289D01*
X50290011Y-58160684D01*
X50373393Y-58077302D01*
X50435705Y-58043276D01*
X50506520Y-58048341D01*
X50531936Y-58061264D01*
X50725186Y-58188932D01*
X50729527Y-58190933D01*
X50729532Y-58190936D01*
X50951645Y-58293331D01*
X50951648Y-58293332D01*
X50955997Y-58295337D01*
X50960599Y-58296661D01*
X51195654Y-58364285D01*
X51195659Y-58364286D01*
X51200247Y-58365606D01*
X51395115Y-58390742D01*
X51447578Y-58397509D01*
X51447580Y-58397509D01*
X51452316Y-58398120D01*
X51587059Y-58394945D01*
X51701622Y-58392245D01*
X51701627Y-58392245D01*
X51706402Y-58392132D01*
X51787283Y-58377798D01*
X51951955Y-58348614D01*
X51951959Y-58348613D01*
X51956659Y-58347780D01*
X52197328Y-58266084D01*
X52422870Y-58148924D01*
X52628096Y-57998996D01*
X52634701Y-57992426D01*
X52778944Y-57848936D01*
X52808282Y-57819751D01*
X52811123Y-57815905D01*
X52811127Y-57815900D01*
X52956437Y-57619166D01*
X52956438Y-57619165D01*
X52959282Y-57615314D01*
X53042964Y-57456261D01*
X53075397Y-57394616D01*
X53075399Y-57394611D01*
X53077621Y-57390388D01*
X53160576Y-57150150D01*
X53206238Y-56900129D01*
X53210500Y-56818804D01*
X53210500Y-56210375D01*
X53196138Y-56021575D01*
X53138750Y-55773982D01*
X53051250Y-55554663D01*
X62329500Y-55554663D01*
X62329501Y-57445336D01*
X62329821Y-57451673D01*
X62370541Y-57653623D01*
X62449711Y-57843817D01*
X62564316Y-58015011D01*
X62709989Y-58160684D01*
X62881183Y-58275289D01*
X63071377Y-58354459D01*
X63273327Y-58395179D01*
X63277993Y-58395415D01*
X63277998Y-58395416D01*
X63278075Y-58395420D01*
X63278093Y-58395420D01*
X63279663Y-58395500D01*
X63281260Y-58395500D01*
X64003398Y-58395499D01*
X64720336Y-58395499D01*
X64721892Y-58395420D01*
X64721909Y-58395420D01*
X64722003Y-58395415D01*
X64722005Y-58395415D01*
X64726673Y-58395179D01*
X64928623Y-58354459D01*
X65118817Y-58275289D01*
X65290011Y-58160684D01*
X65373393Y-58077302D01*
X65435705Y-58043276D01*
X65506520Y-58048341D01*
X65531936Y-58061264D01*
X65725186Y-58188932D01*
X65729527Y-58190933D01*
X65729532Y-58190936D01*
X65951645Y-58293331D01*
X65951648Y-58293332D01*
X65955997Y-58295337D01*
X65960599Y-58296661D01*
X66195654Y-58364285D01*
X66195659Y-58364286D01*
X66200247Y-58365606D01*
X66395115Y-58390742D01*
X66447578Y-58397509D01*
X66447580Y-58397509D01*
X66452316Y-58398120D01*
X66587059Y-58394945D01*
X66701622Y-58392245D01*
X66701627Y-58392245D01*
X66706402Y-58392132D01*
X66787283Y-58377798D01*
X66951955Y-58348614D01*
X66951959Y-58348613D01*
X66956659Y-58347780D01*
X67197328Y-58266084D01*
X67422870Y-58148924D01*
X67628096Y-57998996D01*
X67634701Y-57992426D01*
X67778944Y-57848936D01*
X67808282Y-57819751D01*
X67811123Y-57815905D01*
X67811127Y-57815900D01*
X67956437Y-57619166D01*
X67956438Y-57619165D01*
X67959282Y-57615314D01*
X68042964Y-57456261D01*
X68075397Y-57394616D01*
X68075399Y-57394611D01*
X68077621Y-57390388D01*
X68160576Y-57150150D01*
X68206238Y-56900129D01*
X68210500Y-56818804D01*
X68210500Y-56210375D01*
X68196138Y-56021575D01*
X68138750Y-55773982D01*
X68044570Y-55537919D01*
X67915767Y-55318817D01*
X67755304Y-55121720D01*
X67578267Y-54961474D01*
X67570421Y-54954372D01*
X67570417Y-54954369D01*
X67566874Y-54951162D01*
X67562889Y-54948530D01*
X67562886Y-54948527D01*
X67358806Y-54813705D01*
X67358804Y-54813704D01*
X67354814Y-54811068D01*
X67350473Y-54809067D01*
X67350468Y-54809064D01*
X67128355Y-54706669D01*
X67128352Y-54706668D01*
X67124003Y-54704663D01*
X67119401Y-54703339D01*
X66884346Y-54635715D01*
X66884341Y-54635714D01*
X66879753Y-54634394D01*
X66684885Y-54609258D01*
X66632422Y-54602491D01*
X66632420Y-54602491D01*
X66627684Y-54601880D01*
X66492941Y-54605055D01*
X66378378Y-54607755D01*
X66378373Y-54607755D01*
X66373598Y-54607868D01*
X66292717Y-54622202D01*
X66128045Y-54651386D01*
X66128041Y-54651387D01*
X66123341Y-54652220D01*
X65882672Y-54733916D01*
X65657130Y-54851076D01*
X65653276Y-54853891D01*
X65653272Y-54853894D01*
X65609747Y-54885692D01*
X65538910Y-54937442D01*
X65472107Y-54961474D01*
X65402914Y-54945575D01*
X65375489Y-54924794D01*
X65290011Y-54839316D01*
X65118817Y-54724711D01*
X64928623Y-54645541D01*
X64726673Y-54604821D01*
X64722007Y-54604585D01*
X64722002Y-54604584D01*
X64721925Y-54604580D01*
X64721907Y-54604580D01*
X64720337Y-54604500D01*
X64718740Y-54604500D01*
X63996602Y-54604501D01*
X63279664Y-54604501D01*
X63278108Y-54604580D01*
X63278091Y-54604580D01*
X63277997Y-54604585D01*
X63277995Y-54604585D01*
X63273327Y-54604821D01*
X63071377Y-54645541D01*
X62881183Y-54724711D01*
X62709989Y-54839316D01*
X62564316Y-54984989D01*
X62449711Y-55156183D01*
X62370541Y-55346377D01*
X62329821Y-55548327D01*
X62329500Y-55554663D01*
X53051250Y-55554663D01*
X53044570Y-55537919D01*
X52915767Y-55318817D01*
X52755304Y-55121720D01*
X52578267Y-54961474D01*
X52570421Y-54954372D01*
X52570417Y-54954369D01*
X52566874Y-54951162D01*
X52562889Y-54948530D01*
X52562886Y-54948527D01*
X52358806Y-54813705D01*
X52358804Y-54813704D01*
X52354814Y-54811068D01*
X52350473Y-54809067D01*
X52350468Y-54809064D01*
X52128355Y-54706669D01*
X52128352Y-54706668D01*
X52124003Y-54704663D01*
X52119401Y-54703339D01*
X51884346Y-54635715D01*
X51884341Y-54635714D01*
X51879753Y-54634394D01*
X51684885Y-54609258D01*
X51632422Y-54602491D01*
X51632420Y-54602491D01*
X51627684Y-54601880D01*
X51492941Y-54605055D01*
X51378378Y-54607755D01*
X51378373Y-54607755D01*
X51373598Y-54607868D01*
X51292717Y-54622202D01*
X51128045Y-54651386D01*
X51128041Y-54651387D01*
X51123341Y-54652220D01*
X50882672Y-54733916D01*
X50657130Y-54851076D01*
X50653276Y-54853891D01*
X50653272Y-54853894D01*
X50609747Y-54885692D01*
X50538910Y-54937442D01*
X50472107Y-54961474D01*
X50402914Y-54945575D01*
X50375489Y-54924794D01*
X50290011Y-54839316D01*
X50118817Y-54724711D01*
X49928623Y-54645541D01*
X49726673Y-54604821D01*
X49722007Y-54604585D01*
X49722002Y-54604584D01*
X49721925Y-54604580D01*
X49721907Y-54604580D01*
X49720337Y-54604500D01*
X49718740Y-54604500D01*
X48996602Y-54604501D01*
X48279664Y-54604501D01*
X48278108Y-54604580D01*
X48278091Y-54604580D01*
X48277997Y-54604585D01*
X48277995Y-54604585D01*
X48273327Y-54604821D01*
X48071377Y-54645541D01*
X47881183Y-54724711D01*
X47709989Y-54839316D01*
X47564316Y-54984989D01*
X47449711Y-55156183D01*
X47370541Y-55346377D01*
X47329821Y-55548327D01*
X47329500Y-55554663D01*
X35805054Y-55554663D01*
X35802536Y-42574663D01*
X39789500Y-42574663D01*
X39789501Y-44465336D01*
X39789821Y-44471673D01*
X39830541Y-44673623D01*
X39909711Y-44863817D01*
X40024316Y-45035011D01*
X40169989Y-45180684D01*
X40175107Y-45184110D01*
X40175114Y-45184116D01*
X40203594Y-45203182D01*
X40249074Y-45257699D01*
X40259500Y-45307885D01*
X40259500Y-46915271D01*
X40259230Y-46923512D01*
X40254770Y-46991560D01*
X40255449Y-46997295D01*
X40265699Y-47083895D01*
X40266040Y-47087149D01*
X40274546Y-47179711D01*
X40276116Y-47185278D01*
X40276117Y-47185282D01*
X40276152Y-47185406D01*
X40280008Y-47204789D01*
X40280704Y-47210667D01*
X40304752Y-47288114D01*
X40308272Y-47299451D01*
X40309186Y-47302535D01*
X40334435Y-47392064D01*
X40336988Y-47397241D01*
X40336992Y-47397251D01*
X40337054Y-47397376D01*
X40344379Y-47415737D01*
X40346131Y-47421379D01*
X40348821Y-47426491D01*
X40389403Y-47503625D01*
X40390896Y-47506556D01*
X40432020Y-47589947D01*
X40435564Y-47594693D01*
X40446108Y-47611405D01*
X40448863Y-47616641D01*
X40452440Y-47621178D01*
X40506417Y-47689648D01*
X40508413Y-47692250D01*
X40564033Y-47766733D01*
X40617052Y-47815743D01*
X40627517Y-47825417D01*
X40631083Y-47828847D01*
X42119487Y-49317251D01*
X42125124Y-49323269D01*
X42170090Y-49374543D01*
X42197267Y-49395967D01*
X42243083Y-49432085D01*
X42245619Y-49434138D01*
X42317117Y-49493602D01*
X42322161Y-49496427D01*
X42322287Y-49496498D01*
X42338709Y-49507471D01*
X42338824Y-49507562D01*
X42338829Y-49507565D01*
X42343360Y-49511137D01*
X42348473Y-49513827D01*
X42425617Y-49554415D01*
X42428498Y-49555979D01*
X42509621Y-49601410D01*
X42515088Y-49603266D01*
X42515097Y-49603270D01*
X42515231Y-49603315D01*
X42533387Y-49611116D01*
X42538620Y-49613869D01*
X42544134Y-49615581D01*
X42544136Y-49615582D01*
X42627375Y-49641429D01*
X42630511Y-49642448D01*
X42713077Y-49670475D01*
X42718548Y-49672332D01*
X42724410Y-49673182D01*
X42743687Y-49677544D01*
X42749333Y-49679297D01*
X42755063Y-49679975D01*
X42755067Y-49679976D01*
X42841640Y-49690222D01*
X42844911Y-49690653D01*
X42868987Y-49694144D01*
X42936902Y-49703991D01*
X43023286Y-49700597D01*
X43028233Y-49700500D01*
X54455271Y-49700500D01*
X54463512Y-49700770D01*
X54480444Y-49701880D01*
X54531560Y-49705230D01*
X54564147Y-49701373D01*
X54578956Y-49700500D01*
X67455271Y-49700500D01*
X67463512Y-49700770D01*
X67480444Y-49701880D01*
X67531560Y-49705230D01*
X67623927Y-49694298D01*
X67627149Y-49693960D01*
X67719711Y-49685454D01*
X67725278Y-49683884D01*
X67725282Y-49683883D01*
X67725406Y-49683848D01*
X67744789Y-49679992D01*
X67744929Y-49679975D01*
X67750667Y-49679296D01*
X67839459Y-49651726D01*
X67842535Y-49650814D01*
X67932064Y-49625565D01*
X67937241Y-49623012D01*
X67937251Y-49623008D01*
X67937376Y-49622946D01*
X67955737Y-49615621D01*
X67955860Y-49615583D01*
X67955864Y-49615581D01*
X67961379Y-49613869D01*
X68043634Y-49570593D01*
X68046565Y-49569099D01*
X68129947Y-49527980D01*
X68134693Y-49524436D01*
X68151405Y-49513892D01*
X68156641Y-49511137D01*
X68229663Y-49453572D01*
X68232265Y-49451575D01*
X68256992Y-49433111D01*
X68306733Y-49395967D01*
X68365406Y-49332495D01*
X68368835Y-49328929D01*
X69277251Y-48420512D01*
X69283270Y-48414875D01*
X69330204Y-48373715D01*
X69334543Y-48369910D01*
X69392111Y-48296886D01*
X69394186Y-48294324D01*
X69449908Y-48227325D01*
X69449910Y-48227323D01*
X69453602Y-48222883D01*
X69456498Y-48217713D01*
X69467471Y-48201291D01*
X69467562Y-48201176D01*
X69467565Y-48201171D01*
X69471137Y-48196640D01*
X69514415Y-48114383D01*
X69515989Y-48111483D01*
X69558586Y-48035422D01*
X69558587Y-48035420D01*
X69561410Y-48030379D01*
X69563310Y-48024780D01*
X69571116Y-48006613D01*
X69571178Y-48006494D01*
X69573869Y-48001380D01*
X69601434Y-47912606D01*
X69602450Y-47909480D01*
X69630475Y-47826921D01*
X69630476Y-47826916D01*
X69632331Y-47821452D01*
X69633182Y-47815584D01*
X69637539Y-47796330D01*
X69637585Y-47796183D01*
X69637586Y-47796177D01*
X69639297Y-47790667D01*
X69641667Y-47770649D01*
X69650223Y-47698350D01*
X69650654Y-47695078D01*
X69663163Y-47608811D01*
X69663163Y-47608807D01*
X69663991Y-47603098D01*
X69660597Y-47516714D01*
X69660500Y-47511767D01*
X69660500Y-45307885D01*
X69680502Y-45239764D01*
X69716406Y-45203182D01*
X69744886Y-45184116D01*
X69744893Y-45184110D01*
X69750011Y-45180684D01*
X69833393Y-45097302D01*
X69895705Y-45063276D01*
X69966520Y-45068341D01*
X69991936Y-45081264D01*
X70185186Y-45208932D01*
X70189527Y-45210933D01*
X70189532Y-45210936D01*
X70411645Y-45313331D01*
X70411648Y-45313332D01*
X70415997Y-45315337D01*
X70420599Y-45316661D01*
X70655654Y-45384285D01*
X70655659Y-45384286D01*
X70660247Y-45385606D01*
X70855115Y-45410742D01*
X70907578Y-45417509D01*
X70907580Y-45417509D01*
X70912316Y-45418120D01*
X71047059Y-45414945D01*
X71161622Y-45412245D01*
X71161627Y-45412245D01*
X71166402Y-45412132D01*
X71247283Y-45397798D01*
X71411955Y-45368614D01*
X71411959Y-45368613D01*
X71416659Y-45367780D01*
X71657328Y-45286084D01*
X71882870Y-45168924D01*
X72088096Y-45018996D01*
X72094701Y-45012426D01*
X72238944Y-44868936D01*
X72268282Y-44839751D01*
X72271123Y-44835905D01*
X72271127Y-44835900D01*
X72416437Y-44639166D01*
X72416438Y-44639165D01*
X72419282Y-44635314D01*
X72502964Y-44476261D01*
X72535397Y-44414616D01*
X72535399Y-44414611D01*
X72537621Y-44410388D01*
X72620576Y-44170150D01*
X72666238Y-43920129D01*
X72670500Y-43838804D01*
X72670500Y-43230375D01*
X72656138Y-43041575D01*
X72598750Y-42793982D01*
X72504570Y-42557919D01*
X72375767Y-42338817D01*
X72215304Y-42141720D01*
X72141945Y-42075319D01*
X72104864Y-42014776D01*
X72100500Y-41981904D01*
X72100500Y-39603581D01*
X72101403Y-39592881D01*
X72101092Y-39592858D01*
X72101531Y-39586884D01*
X72102537Y-39580966D01*
X72100530Y-39488986D01*
X72100500Y-39486237D01*
X72100500Y-39447531D01*
X72099804Y-39440237D01*
X72099265Y-39431029D01*
X72098087Y-39377017D01*
X72098087Y-39377015D01*
X72097956Y-39371020D01*
X72091039Y-39338889D01*
X72090966Y-39338551D01*
X72088714Y-39324000D01*
X72086131Y-39296930D01*
X72085561Y-39290954D01*
X72079545Y-39270446D01*
X72068666Y-39233365D01*
X72066392Y-39224414D01*
X72059394Y-39191908D01*
X72053758Y-39165729D01*
X72048599Y-39153603D01*
X72040759Y-39135179D01*
X72035796Y-39121316D01*
X72028137Y-39095211D01*
X72028136Y-39095209D01*
X72026447Y-39089451D01*
X71998963Y-39036088D01*
X71995038Y-39027728D01*
X71973885Y-38978014D01*
X71973883Y-38978011D01*
X71971538Y-38972499D01*
X71968189Y-38967524D01*
X71952990Y-38944947D01*
X71945495Y-38932274D01*
X71930295Y-38902761D01*
X71908950Y-38875588D01*
X71893223Y-38855566D01*
X71887789Y-38848100D01*
X71862477Y-38810503D01*
X71854262Y-38798301D01*
X71850549Y-38794207D01*
X71830130Y-38773788D01*
X71820139Y-38762526D01*
X71804281Y-38742338D01*
X71800576Y-38737621D01*
X71753926Y-38697140D01*
X71747412Y-38691070D01*
X68851417Y-35795075D01*
X68844485Y-35786865D01*
X68844249Y-35787069D01*
X68840334Y-35782533D01*
X68836863Y-35777640D01*
X68770370Y-35713987D01*
X68768406Y-35712064D01*
X68741070Y-35684728D01*
X68738761Y-35682821D01*
X68738751Y-35682812D01*
X68735426Y-35680066D01*
X68728533Y-35673936D01*
X68689497Y-35636568D01*
X68689496Y-35636568D01*
X68685169Y-35632425D01*
X68680135Y-35629175D01*
X68680133Y-35629173D01*
X68657273Y-35614413D01*
X68645389Y-35605715D01*
X68624412Y-35588392D01*
X68624413Y-35588392D01*
X68619790Y-35584575D01*
X68567110Y-35555793D01*
X68559190Y-35551082D01*
X68508754Y-35518515D01*
X68503186Y-35516271D01*
X68503184Y-35516270D01*
X68477961Y-35506105D01*
X68464648Y-35499812D01*
X68440766Y-35486764D01*
X68435506Y-35483890D01*
X68429798Y-35482063D01*
X68429796Y-35482062D01*
X68378336Y-35465590D01*
X68369649Y-35462454D01*
X68319547Y-35442262D01*
X68319545Y-35442261D01*
X68313981Y-35440019D01*
X68281400Y-35433657D01*
X68267137Y-35429995D01*
X68241220Y-35421699D01*
X68241219Y-35421699D01*
X68235506Y-35419870D01*
X68229554Y-35419155D01*
X68175904Y-35412710D01*
X68166784Y-35411273D01*
X68124322Y-35402981D01*
X68107878Y-35399770D01*
X68102357Y-35399500D01*
X68073479Y-35399500D01*
X68058451Y-35398601D01*
X68032956Y-35395538D01*
X68032952Y-35395538D01*
X68027009Y-35394824D01*
X68021033Y-35395247D01*
X68021030Y-35395247D01*
X67965415Y-35399185D01*
X67956516Y-35399500D01*
X59508032Y-35399500D01*
X59439911Y-35379498D01*
X59418937Y-35362595D01*
X58545797Y-34489455D01*
X76744825Y-34489455D01*
X76745512Y-34496462D01*
X76745512Y-34496465D01*
X76748311Y-34525010D01*
X76761255Y-34657025D01*
X76814402Y-34816791D01*
X76818049Y-34822813D01*
X76818050Y-34822815D01*
X76830699Y-34843700D01*
X76901624Y-34960812D01*
X76906513Y-34965875D01*
X76906514Y-34965876D01*
X76933323Y-34993637D01*
X77018586Y-35081929D01*
X77024483Y-35085788D01*
X77153577Y-35170266D01*
X77153581Y-35170268D01*
X77159475Y-35174125D01*
X77317289Y-35232815D01*
X77324270Y-35233746D01*
X77324272Y-35233747D01*
X77369812Y-35239823D01*
X77484183Y-35255083D01*
X77491194Y-35254445D01*
X77491198Y-35254445D01*
X77644843Y-35240462D01*
X77651864Y-35239823D01*
X77658566Y-35237645D01*
X77658568Y-35237645D01*
X77805298Y-35189970D01*
X77805301Y-35189969D01*
X77811997Y-35187793D01*
X77956623Y-35101578D01*
X77961717Y-35096727D01*
X77961721Y-35096724D01*
X78073454Y-34990322D01*
X78073455Y-34990320D01*
X78078554Y-34985465D01*
X78084089Y-34977135D01*
X78167836Y-34851085D01*
X78171731Y-34845223D01*
X78231521Y-34687823D01*
X78254955Y-34521088D01*
X78255249Y-34500000D01*
X78250936Y-34461548D01*
X78237266Y-34339672D01*
X78237265Y-34339669D01*
X78236481Y-34332676D01*
X78181108Y-34173668D01*
X78091884Y-34030879D01*
X78083723Y-34022661D01*
X77978205Y-33916403D01*
X77978201Y-33916400D01*
X77973242Y-33911406D01*
X77831079Y-33821187D01*
X77672462Y-33764706D01*
X77665474Y-33763873D01*
X77665471Y-33763872D01*
X77572300Y-33752762D01*
X77505273Y-33744769D01*
X77498270Y-33745505D01*
X77498269Y-33745505D01*
X77452712Y-33750293D01*
X77337821Y-33762369D01*
X77331155Y-33764638D01*
X77331152Y-33764639D01*
X77185098Y-33814360D01*
X77185095Y-33814361D01*
X77178431Y-33816630D01*
X77172436Y-33820318D01*
X77172432Y-33820320D01*
X77041021Y-33901165D01*
X77041019Y-33901167D01*
X77035022Y-33904856D01*
X76914724Y-34022661D01*
X76823515Y-34164190D01*
X76765927Y-34322409D01*
X76744825Y-34489455D01*
X58545797Y-34489455D01*
X57367405Y-33311063D01*
X57333379Y-33248751D01*
X57330500Y-33221968D01*
X57330500Y-31059041D01*
X57350502Y-30990920D01*
X57367638Y-30969713D01*
X57409583Y-30927987D01*
X57471984Y-30894125D01*
X57542786Y-30899375D01*
X57583000Y-30923900D01*
X57739579Y-31065628D01*
X57739583Y-31065631D01*
X57743126Y-31068838D01*
X57747111Y-31071470D01*
X57747114Y-31071473D01*
X57912427Y-31180684D01*
X57955186Y-31208932D01*
X57959527Y-31210933D01*
X57959532Y-31210936D01*
X58181645Y-31313331D01*
X58181648Y-31313332D01*
X58185997Y-31315337D01*
X58190599Y-31316661D01*
X58425654Y-31384285D01*
X58425659Y-31384286D01*
X58430247Y-31385606D01*
X58625115Y-31410742D01*
X58677578Y-31417509D01*
X58677580Y-31417509D01*
X58682316Y-31418120D01*
X58817059Y-31414945D01*
X58931622Y-31412245D01*
X58931627Y-31412245D01*
X58936402Y-31412132D01*
X59017283Y-31397798D01*
X59181955Y-31368614D01*
X59181959Y-31368613D01*
X59186659Y-31367780D01*
X59427328Y-31286084D01*
X59652870Y-31168924D01*
X59858096Y-31018996D01*
X59949585Y-30927985D01*
X60011984Y-30894125D01*
X60082787Y-30899375D01*
X60123000Y-30923900D01*
X60279579Y-31065628D01*
X60279583Y-31065631D01*
X60283126Y-31068838D01*
X60287111Y-31071470D01*
X60287114Y-31071473D01*
X60452427Y-31180684D01*
X60495186Y-31208932D01*
X60499527Y-31210933D01*
X60499532Y-31210936D01*
X60721645Y-31313331D01*
X60721648Y-31313332D01*
X60725997Y-31315337D01*
X60730599Y-31316661D01*
X60965654Y-31384285D01*
X60965659Y-31384286D01*
X60970247Y-31385606D01*
X61165115Y-31410742D01*
X61217578Y-31417509D01*
X61217580Y-31417509D01*
X61222316Y-31418120D01*
X61357059Y-31414945D01*
X61471622Y-31412245D01*
X61471627Y-31412245D01*
X61476402Y-31412132D01*
X61557283Y-31397798D01*
X61721955Y-31368614D01*
X61721959Y-31368613D01*
X61726659Y-31367780D01*
X61967328Y-31286084D01*
X62192870Y-31168924D01*
X62398096Y-31018996D01*
X62489585Y-30927985D01*
X62551984Y-30894125D01*
X62622787Y-30899375D01*
X62663000Y-30923900D01*
X62819579Y-31065628D01*
X62819583Y-31065631D01*
X62823126Y-31068838D01*
X62827111Y-31071470D01*
X62827114Y-31071473D01*
X62992427Y-31180684D01*
X63035186Y-31208932D01*
X63039527Y-31210933D01*
X63039532Y-31210936D01*
X63261645Y-31313331D01*
X63261648Y-31313332D01*
X63265997Y-31315337D01*
X63270599Y-31316661D01*
X63505654Y-31384285D01*
X63505659Y-31384286D01*
X63510247Y-31385606D01*
X63705115Y-31410742D01*
X63757578Y-31417509D01*
X63757580Y-31417509D01*
X63762316Y-31418120D01*
X63897059Y-31414945D01*
X64011622Y-31412245D01*
X64011627Y-31412245D01*
X64016402Y-31412132D01*
X64097283Y-31397798D01*
X64261955Y-31368614D01*
X64261959Y-31368613D01*
X64266659Y-31367780D01*
X64507328Y-31286084D01*
X64732870Y-31168924D01*
X64938096Y-31018996D01*
X65029585Y-30927985D01*
X65091984Y-30894125D01*
X65162787Y-30899375D01*
X65203000Y-30923900D01*
X65359579Y-31065628D01*
X65359583Y-31065631D01*
X65363126Y-31068838D01*
X65367111Y-31071470D01*
X65367114Y-31071473D01*
X65532427Y-31180684D01*
X65575186Y-31208932D01*
X65579527Y-31210933D01*
X65579532Y-31210936D01*
X65801645Y-31313331D01*
X65801648Y-31313332D01*
X65805997Y-31315337D01*
X65810599Y-31316661D01*
X66045654Y-31384285D01*
X66045659Y-31384286D01*
X66050247Y-31385606D01*
X66245115Y-31410742D01*
X66297578Y-31417509D01*
X66297580Y-31417509D01*
X66302316Y-31418120D01*
X66437059Y-31414945D01*
X66551622Y-31412245D01*
X66551627Y-31412245D01*
X66556402Y-31412132D01*
X66637283Y-31397798D01*
X66801955Y-31368614D01*
X66801959Y-31368613D01*
X66806659Y-31367780D01*
X67047328Y-31286084D01*
X67272870Y-31168924D01*
X67478096Y-31018996D01*
X67506320Y-30990920D01*
X67603177Y-30894568D01*
X67658282Y-30839751D01*
X67661123Y-30835905D01*
X67661127Y-30835900D01*
X67806437Y-30639166D01*
X67806438Y-30639165D01*
X67809282Y-30635314D01*
X67892964Y-30476261D01*
X67925397Y-30414616D01*
X67925399Y-30414611D01*
X67927621Y-30410388D01*
X68010576Y-30170150D01*
X68042809Y-29993658D01*
X68055513Y-29924099D01*
X68055513Y-29924098D01*
X68056238Y-29920129D01*
X68060500Y-29838804D01*
X68060500Y-29230375D01*
X68051792Y-29115901D01*
X68046501Y-29046342D01*
X68046500Y-29046337D01*
X68046138Y-29041575D01*
X67988750Y-28793982D01*
X67894570Y-28557919D01*
X67820519Y-28431954D01*
X67768194Y-28342945D01*
X67768192Y-28342942D01*
X67765767Y-28338817D01*
X67605304Y-28141720D01*
X67535432Y-28078475D01*
X67420421Y-27974372D01*
X67420417Y-27974369D01*
X67416874Y-27971162D01*
X67412889Y-27968530D01*
X67412886Y-27968527D01*
X67208806Y-27833705D01*
X67208804Y-27833704D01*
X67204814Y-27831068D01*
X67200473Y-27829067D01*
X67200468Y-27829064D01*
X66978355Y-27726669D01*
X66978352Y-27726668D01*
X66974003Y-27724663D01*
X66969401Y-27723339D01*
X66734346Y-27655715D01*
X66734341Y-27655714D01*
X66729753Y-27654394D01*
X66534885Y-27629258D01*
X66482422Y-27622491D01*
X66482420Y-27622491D01*
X66477684Y-27621880D01*
X66342941Y-27625055D01*
X66228378Y-27627755D01*
X66228373Y-27627755D01*
X66223598Y-27627868D01*
X66142717Y-27642202D01*
X65978045Y-27671386D01*
X65978041Y-27671387D01*
X65973341Y-27672220D01*
X65732672Y-27753916D01*
X65507130Y-27871076D01*
X65301904Y-28021004D01*
X65210415Y-28112015D01*
X65148016Y-28145875D01*
X65077213Y-28140625D01*
X65037000Y-28116100D01*
X64880421Y-27974372D01*
X64880417Y-27974369D01*
X64876874Y-27971162D01*
X64872889Y-27968530D01*
X64872886Y-27968527D01*
X64668806Y-27833705D01*
X64668804Y-27833704D01*
X64664814Y-27831068D01*
X64660473Y-27829067D01*
X64660468Y-27829064D01*
X64438355Y-27726669D01*
X64438352Y-27726668D01*
X64434003Y-27724663D01*
X64429401Y-27723339D01*
X64194346Y-27655715D01*
X64194341Y-27655714D01*
X64189753Y-27654394D01*
X63994885Y-27629258D01*
X63942422Y-27622491D01*
X63942420Y-27622491D01*
X63937684Y-27621880D01*
X63802941Y-27625055D01*
X63688378Y-27627755D01*
X63688373Y-27627755D01*
X63683598Y-27627868D01*
X63602717Y-27642202D01*
X63438045Y-27671386D01*
X63438041Y-27671387D01*
X63433341Y-27672220D01*
X63192672Y-27753916D01*
X62967130Y-27871076D01*
X62761904Y-28021004D01*
X62670415Y-28112015D01*
X62608016Y-28145875D01*
X62537213Y-28140625D01*
X62497000Y-28116100D01*
X62340421Y-27974372D01*
X62340417Y-27974369D01*
X62336874Y-27971162D01*
X62332889Y-27968530D01*
X62332886Y-27968527D01*
X62128806Y-27833705D01*
X62128804Y-27833704D01*
X62124814Y-27831068D01*
X62120473Y-27829067D01*
X62120468Y-27829064D01*
X61898355Y-27726669D01*
X61898352Y-27726668D01*
X61894003Y-27724663D01*
X61889401Y-27723339D01*
X61654346Y-27655715D01*
X61654341Y-27655714D01*
X61649753Y-27654394D01*
X61454885Y-27629258D01*
X61402422Y-27622491D01*
X61402420Y-27622491D01*
X61397684Y-27621880D01*
X61262941Y-27625055D01*
X61148378Y-27627755D01*
X61148373Y-27627755D01*
X61143598Y-27627868D01*
X61062717Y-27642202D01*
X60898045Y-27671386D01*
X60898041Y-27671387D01*
X60893341Y-27672220D01*
X60652672Y-27753916D01*
X60427130Y-27871076D01*
X60221904Y-28021004D01*
X60130415Y-28112015D01*
X60068016Y-28145875D01*
X59997213Y-28140625D01*
X59957000Y-28116100D01*
X59800421Y-27974372D01*
X59800417Y-27974369D01*
X59796874Y-27971162D01*
X59792889Y-27968530D01*
X59792886Y-27968527D01*
X59588806Y-27833705D01*
X59588804Y-27833704D01*
X59584814Y-27831068D01*
X59580473Y-27829067D01*
X59580468Y-27829064D01*
X59358355Y-27726669D01*
X59358352Y-27726668D01*
X59354003Y-27724663D01*
X59349401Y-27723339D01*
X59114346Y-27655715D01*
X59114341Y-27655714D01*
X59109753Y-27654394D01*
X58914885Y-27629258D01*
X58862422Y-27622491D01*
X58862420Y-27622491D01*
X58857684Y-27621880D01*
X58722941Y-27625055D01*
X58608378Y-27627755D01*
X58608373Y-27627755D01*
X58603598Y-27627868D01*
X58522717Y-27642202D01*
X58358045Y-27671386D01*
X58358041Y-27671387D01*
X58353341Y-27672220D01*
X58112672Y-27753916D01*
X57887130Y-27871076D01*
X57681904Y-28021004D01*
X57590415Y-28112015D01*
X57528016Y-28145875D01*
X57457213Y-28140625D01*
X57417000Y-28116100D01*
X57260421Y-27974372D01*
X57260417Y-27974369D01*
X57256874Y-27971162D01*
X57252889Y-27968530D01*
X57252886Y-27968527D01*
X57048806Y-27833705D01*
X57048804Y-27833704D01*
X57044814Y-27831068D01*
X57040473Y-27829067D01*
X57040468Y-27829064D01*
X56818355Y-27726669D01*
X56818352Y-27726668D01*
X56814003Y-27724663D01*
X56809401Y-27723339D01*
X56574346Y-27655715D01*
X56574341Y-27655714D01*
X56569753Y-27654394D01*
X56374885Y-27629258D01*
X56322422Y-27622491D01*
X56322420Y-27622491D01*
X56317684Y-27621880D01*
X56182941Y-27625055D01*
X56068378Y-27627755D01*
X56068373Y-27627755D01*
X56063598Y-27627868D01*
X55982717Y-27642202D01*
X55818045Y-27671386D01*
X55818041Y-27671387D01*
X55813341Y-27672220D01*
X55572672Y-27753916D01*
X55347130Y-27871076D01*
X55141904Y-28021004D01*
X55050415Y-28112015D01*
X54988016Y-28145875D01*
X54917213Y-28140625D01*
X54877000Y-28116100D01*
X54720421Y-27974372D01*
X54720417Y-27974369D01*
X54716874Y-27971162D01*
X54712889Y-27968530D01*
X54712886Y-27968527D01*
X54508806Y-27833705D01*
X54508804Y-27833704D01*
X54504814Y-27831068D01*
X54500473Y-27829067D01*
X54500468Y-27829064D01*
X54278355Y-27726669D01*
X54278352Y-27726668D01*
X54274003Y-27724663D01*
X54269401Y-27723339D01*
X54034346Y-27655715D01*
X54034341Y-27655714D01*
X54029753Y-27654394D01*
X53834885Y-27629258D01*
X53782422Y-27622491D01*
X53782420Y-27622491D01*
X53777684Y-27621880D01*
X53642941Y-27625055D01*
X53528378Y-27627755D01*
X53528373Y-27627755D01*
X53523598Y-27627868D01*
X53442717Y-27642202D01*
X53278045Y-27671386D01*
X53278041Y-27671387D01*
X53273341Y-27672220D01*
X53032672Y-27753916D01*
X52807130Y-27871076D01*
X52601904Y-28021004D01*
X52510415Y-28112015D01*
X52448016Y-28145875D01*
X52377213Y-28140625D01*
X52337000Y-28116100D01*
X52180421Y-27974372D01*
X52180417Y-27974369D01*
X52176874Y-27971162D01*
X52172889Y-27968530D01*
X52172886Y-27968527D01*
X51968806Y-27833705D01*
X51968804Y-27833704D01*
X51964814Y-27831068D01*
X51960473Y-27829067D01*
X51960468Y-27829064D01*
X51738355Y-27726669D01*
X51738352Y-27726668D01*
X51734003Y-27724663D01*
X51729401Y-27723339D01*
X51494346Y-27655715D01*
X51494341Y-27655714D01*
X51489753Y-27654394D01*
X51294885Y-27629258D01*
X51242422Y-27622491D01*
X51242420Y-27622491D01*
X51237684Y-27621880D01*
X51102941Y-27625055D01*
X50988378Y-27627755D01*
X50988373Y-27627755D01*
X50983598Y-27627868D01*
X50902717Y-27642202D01*
X50738045Y-27671386D01*
X50738041Y-27671387D01*
X50733341Y-27672220D01*
X50492672Y-27753916D01*
X50267130Y-27871076D01*
X50061904Y-28021004D01*
X49881718Y-28200249D01*
X49878877Y-28204095D01*
X49878873Y-28204100D01*
X49754554Y-28372415D01*
X49730718Y-28404686D01*
X49728492Y-28408916D01*
X49728490Y-28408920D01*
X49640449Y-28576260D01*
X49612379Y-28629612D01*
X49529424Y-28869850D01*
X49483762Y-29119871D01*
X49479500Y-29201196D01*
X49479500Y-29809625D01*
X49493862Y-29998425D01*
X49551250Y-30246018D01*
X49645430Y-30482081D01*
X49774233Y-30701183D01*
X49934696Y-30898280D01*
X49938247Y-30901494D01*
X50008055Y-30964681D01*
X50045136Y-31025224D01*
X50049500Y-31058096D01*
X50049500Y-31841968D01*
X50029498Y-31910089D01*
X50012595Y-31931063D01*
X43295075Y-38648583D01*
X43286865Y-38655515D01*
X43287069Y-38655751D01*
X43282533Y-38659666D01*
X43277640Y-38663137D01*
X43266360Y-38674920D01*
X43213987Y-38729630D01*
X43212064Y-38731594D01*
X43184728Y-38758930D01*
X43182821Y-38761239D01*
X43182812Y-38761249D01*
X43180066Y-38764574D01*
X43173936Y-38771467D01*
X43153215Y-38793113D01*
X43132425Y-38814831D01*
X43129175Y-38819865D01*
X43129173Y-38819867D01*
X43114413Y-38842727D01*
X43105715Y-38854611D01*
X43084575Y-38880210D01*
X43081702Y-38885469D01*
X43055793Y-38932890D01*
X43051082Y-38940810D01*
X43018515Y-38991246D01*
X43016271Y-38996814D01*
X43016270Y-38996816D01*
X43006105Y-39022039D01*
X42999812Y-39035352D01*
X42983890Y-39064494D01*
X42982063Y-39070202D01*
X42982062Y-39070204D01*
X42965590Y-39121664D01*
X42962454Y-39130351D01*
X42945833Y-39171594D01*
X42940019Y-39186019D01*
X42938869Y-39191908D01*
X42933657Y-39218599D01*
X42929995Y-39232863D01*
X42926847Y-39242698D01*
X42919870Y-39264494D01*
X42919155Y-39270446D01*
X42912710Y-39324096D01*
X42911275Y-39333208D01*
X42910166Y-39338889D01*
X42877483Y-39401915D01*
X42815913Y-39437267D01*
X42745005Y-39433719D01*
X42687272Y-39392399D01*
X42661042Y-39326425D01*
X42660500Y-39314748D01*
X42660500Y-35089454D01*
X42680502Y-35021333D01*
X42697405Y-35000359D01*
X46245360Y-31452404D01*
X46307672Y-31418378D01*
X46334455Y-31415499D01*
X46790336Y-31415499D01*
X46791892Y-31415420D01*
X46791909Y-31415420D01*
X46792003Y-31415415D01*
X46792005Y-31415415D01*
X46796673Y-31415179D01*
X46998623Y-31374459D01*
X47188817Y-31295289D01*
X47360011Y-31180684D01*
X47505684Y-31035011D01*
X47620289Y-30863817D01*
X47699459Y-30673623D01*
X47740179Y-30471673D01*
X47740500Y-30465337D01*
X47740499Y-28574664D01*
X47740179Y-28568327D01*
X47699459Y-28366377D01*
X47620289Y-28176183D01*
X47505684Y-28004989D01*
X47360011Y-27859316D01*
X47188817Y-27744711D01*
X46998623Y-27665541D01*
X46796673Y-27624821D01*
X46792007Y-27624585D01*
X46792002Y-27624584D01*
X46791925Y-27624580D01*
X46791907Y-27624580D01*
X46790337Y-27624500D01*
X46788740Y-27624500D01*
X46066602Y-27624501D01*
X45349664Y-27624501D01*
X45348108Y-27624580D01*
X45348091Y-27624580D01*
X45347997Y-27624585D01*
X45347995Y-27624585D01*
X45343327Y-27624821D01*
X45141377Y-27665541D01*
X44951183Y-27744711D01*
X44779989Y-27859316D01*
X44634316Y-28004989D01*
X44519711Y-28176183D01*
X44440541Y-28366377D01*
X44399821Y-28568327D01*
X44399500Y-28574663D01*
X44399501Y-29232761D01*
X44399501Y-29850546D01*
X44379499Y-29918667D01*
X44362596Y-29939641D01*
X40642757Y-33659480D01*
X40636739Y-33665117D01*
X40585457Y-33710090D01*
X40581885Y-33714621D01*
X40527889Y-33783114D01*
X40525814Y-33785676D01*
X40518598Y-33794353D01*
X40466398Y-33857117D01*
X40463573Y-33862161D01*
X40463502Y-33862287D01*
X40452529Y-33878709D01*
X40452438Y-33878824D01*
X40452435Y-33878829D01*
X40448863Y-33883360D01*
X40446173Y-33888473D01*
X40405585Y-33965617D01*
X40404021Y-33968498D01*
X40358590Y-34049621D01*
X40356690Y-34055220D01*
X40348884Y-34073387D01*
X40346131Y-34078620D01*
X40326902Y-34140549D01*
X40318569Y-34167384D01*
X40317550Y-34170520D01*
X40289899Y-34251980D01*
X40287669Y-34258548D01*
X40286818Y-34264416D01*
X40282461Y-34283670D01*
X40282415Y-34283817D01*
X40282414Y-34283823D01*
X40280703Y-34289333D01*
X40280025Y-34295061D01*
X40280024Y-34295066D01*
X40275961Y-34329400D01*
X40270631Y-34374438D01*
X40269777Y-34381650D01*
X40269346Y-34384922D01*
X40261970Y-34435794D01*
X40256009Y-34476902D01*
X40257745Y-34521088D01*
X40259403Y-34563286D01*
X40259500Y-34568233D01*
X40259500Y-41732115D01*
X40239498Y-41800236D01*
X40203594Y-41836818D01*
X40175114Y-41855884D01*
X40175107Y-41855890D01*
X40169989Y-41859316D01*
X40024316Y-42004989D01*
X39909711Y-42176183D01*
X39830541Y-42366377D01*
X39789821Y-42568327D01*
X39789500Y-42574663D01*
X35802536Y-42574663D01*
X35800012Y-29558558D01*
X35801005Y-29542745D01*
X35804101Y-29518231D01*
X35804101Y-29518230D01*
X35804984Y-29511240D01*
X35803832Y-29499482D01*
X35802200Y-29482842D01*
X35801751Y-29464366D01*
X35813128Y-29232761D01*
X35817513Y-29143514D01*
X35818724Y-29131213D01*
X35819808Y-29123906D01*
X35870187Y-28784281D01*
X35872594Y-28772175D01*
X35957815Y-28431953D01*
X35961404Y-28420122D01*
X36079560Y-28089899D01*
X36084292Y-28078475D01*
X36185885Y-27863675D01*
X36234247Y-27761422D01*
X36240074Y-27750521D01*
X36241503Y-27748138D01*
X36329743Y-27600917D01*
X36420382Y-27449696D01*
X36427252Y-27439415D01*
X36636174Y-27157716D01*
X36644018Y-27148158D01*
X36879547Y-26888291D01*
X36888291Y-26879547D01*
X37148158Y-26644018D01*
X37157716Y-26636174D01*
X37439415Y-26427252D01*
X37449696Y-26420382D01*
X37738874Y-26247055D01*
X37750525Y-26240072D01*
X37761426Y-26234245D01*
X38078475Y-26084292D01*
X38089899Y-26079560D01*
X38420122Y-25961404D01*
X38431954Y-25957815D01*
X38772175Y-25872594D01*
X38784281Y-25870187D01*
X39131218Y-25818723D01*
X39143514Y-25817513D01*
X39452484Y-25802334D01*
X39474445Y-25803176D01*
X39488760Y-25804984D01*
X39533374Y-25800610D01*
X39545684Y-25800009D01*
X75484344Y-25806969D01*
G37*
%TD.AperFunction*%
%TA.AperFunction,Conductor*%
G36*
X52462786Y-30899375D02*
G01*
X52502999Y-30923899D01*
X52548054Y-30964680D01*
X52585136Y-31025223D01*
X52589500Y-31058096D01*
X52589500Y-34821085D01*
X52588597Y-34831785D01*
X52588908Y-34831808D01*
X52588469Y-34837782D01*
X52587463Y-34843700D01*
X52587594Y-34849701D01*
X52589470Y-34935681D01*
X52589500Y-34938430D01*
X52589500Y-34977135D01*
X52590196Y-34984429D01*
X52590735Y-34993630D01*
X52591339Y-35021333D01*
X52591687Y-35037264D01*
X52592044Y-35053647D01*
X52593305Y-35059506D01*
X52593306Y-35059511D01*
X52599034Y-35086116D01*
X52601286Y-35100667D01*
X52604439Y-35133712D01*
X52606129Y-35139472D01*
X52606129Y-35139473D01*
X52621338Y-35191319D01*
X52623610Y-35200266D01*
X52636242Y-35258937D01*
X52638593Y-35264462D01*
X52649242Y-35289489D01*
X52654200Y-35303335D01*
X52663553Y-35335215D01*
X52691042Y-35388588D01*
X52694958Y-35396930D01*
X52713293Y-35440019D01*
X52718462Y-35452168D01*
X52721813Y-35457145D01*
X52737005Y-35479711D01*
X52744501Y-35492385D01*
X52756803Y-35516270D01*
X52759705Y-35521905D01*
X52763413Y-35526625D01*
X52796780Y-35569104D01*
X52802214Y-35576569D01*
X52833203Y-35622599D01*
X52833207Y-35622604D01*
X52835739Y-35626365D01*
X52839452Y-35630460D01*
X52859870Y-35650878D01*
X52869860Y-35662139D01*
X52889424Y-35687045D01*
X52893954Y-35690976D01*
X52893955Y-35690977D01*
X52936074Y-35727526D01*
X52942588Y-35733596D01*
X56362595Y-39153603D01*
X56396621Y-39215915D01*
X56399500Y-39242698D01*
X56399500Y-41723413D01*
X56379498Y-41791534D01*
X56325842Y-41838027D01*
X56255568Y-41848131D01*
X56203408Y-41828118D01*
X56078817Y-41744711D01*
X55888623Y-41665541D01*
X55686673Y-41624821D01*
X55682007Y-41624585D01*
X55682002Y-41624584D01*
X55681925Y-41624580D01*
X55681907Y-41624580D01*
X55680337Y-41624500D01*
X55678740Y-41624500D01*
X54956602Y-41624501D01*
X54239664Y-41624501D01*
X54238108Y-41624580D01*
X54238091Y-41624580D01*
X54237997Y-41624585D01*
X54237995Y-41624585D01*
X54233327Y-41624821D01*
X54031377Y-41665541D01*
X53841183Y-41744711D01*
X53669989Y-41859316D01*
X53524316Y-42004989D01*
X53409711Y-42176183D01*
X53330541Y-42366377D01*
X53289821Y-42568327D01*
X53289500Y-42574663D01*
X53289501Y-44465336D01*
X53289821Y-44471673D01*
X53330541Y-44673623D01*
X53409711Y-44863817D01*
X53524316Y-45035011D01*
X53669989Y-45180684D01*
X53675107Y-45184110D01*
X53675114Y-45184116D01*
X53703594Y-45203182D01*
X53749074Y-45257699D01*
X53759500Y-45307885D01*
X53759500Y-47173500D01*
X53739498Y-47241621D01*
X53685842Y-47288114D01*
X53633500Y-47299500D01*
X43549455Y-47299500D01*
X43481334Y-47279498D01*
X43460360Y-47262596D01*
X42697405Y-46499642D01*
X42663380Y-46437329D01*
X42660500Y-46410546D01*
X42660500Y-45307885D01*
X42680502Y-45239764D01*
X42716406Y-45203182D01*
X42744886Y-45184116D01*
X42744893Y-45184110D01*
X42750011Y-45180684D01*
X42833393Y-45097302D01*
X42895705Y-45063276D01*
X42966520Y-45068341D01*
X42991936Y-45081264D01*
X43185186Y-45208932D01*
X43189527Y-45210933D01*
X43189532Y-45210936D01*
X43411645Y-45313331D01*
X43411648Y-45313332D01*
X43415997Y-45315337D01*
X43420599Y-45316661D01*
X43655654Y-45384285D01*
X43655659Y-45384286D01*
X43660247Y-45385606D01*
X43855115Y-45410742D01*
X43907578Y-45417509D01*
X43907580Y-45417509D01*
X43912316Y-45418120D01*
X44047059Y-45414945D01*
X44161622Y-45412245D01*
X44161627Y-45412245D01*
X44166402Y-45412132D01*
X44247283Y-45397798D01*
X44411955Y-45368614D01*
X44411959Y-45368613D01*
X44416659Y-45367780D01*
X44657328Y-45286084D01*
X44882870Y-45168924D01*
X45088096Y-45018996D01*
X45094701Y-45012426D01*
X45238944Y-44868936D01*
X45268282Y-44839751D01*
X45271123Y-44835905D01*
X45271127Y-44835900D01*
X45416437Y-44639166D01*
X45416438Y-44639165D01*
X45419282Y-44635314D01*
X45502964Y-44476261D01*
X45535397Y-44414616D01*
X45535399Y-44414611D01*
X45537621Y-44410388D01*
X45620576Y-44170150D01*
X45666238Y-43920129D01*
X45670500Y-43838804D01*
X45670500Y-43230375D01*
X45656138Y-43041575D01*
X45598750Y-42793982D01*
X45504570Y-42557919D01*
X45375767Y-42338817D01*
X45215304Y-42141720D01*
X45141945Y-42075319D01*
X45104864Y-42014776D01*
X45100500Y-41981904D01*
X45100500Y-40008032D01*
X45120502Y-39939911D01*
X45137405Y-39918937D01*
X51854925Y-33201417D01*
X51863135Y-33194485D01*
X51862931Y-33194249D01*
X51867467Y-33190334D01*
X51872360Y-33186863D01*
X51936013Y-33120370D01*
X51937936Y-33118406D01*
X51965272Y-33091070D01*
X51967179Y-33088761D01*
X51967188Y-33088751D01*
X51969934Y-33085426D01*
X51976064Y-33078533D01*
X52013432Y-33039497D01*
X52013432Y-33039496D01*
X52017575Y-33035169D01*
X52035587Y-33007273D01*
X52044285Y-32995389D01*
X52061608Y-32974412D01*
X52065425Y-32969790D01*
X52094207Y-32917110D01*
X52098918Y-32909190D01*
X52131485Y-32858754D01*
X52143895Y-32827961D01*
X52150188Y-32814648D01*
X52163236Y-32790766D01*
X52166110Y-32785506D01*
X52184410Y-32728336D01*
X52187546Y-32719649D01*
X52207738Y-32669547D01*
X52207739Y-32669545D01*
X52209981Y-32663981D01*
X52216343Y-32631400D01*
X52220005Y-32617137D01*
X52228301Y-32591220D01*
X52228301Y-32591219D01*
X52230130Y-32585506D01*
X52237290Y-32525904D01*
X52238727Y-32516784D01*
X52249361Y-32462327D01*
X52250230Y-32457878D01*
X52250500Y-32452357D01*
X52250500Y-32423479D01*
X52251399Y-32408451D01*
X52254462Y-32382956D01*
X52254462Y-32382952D01*
X52255176Y-32377009D01*
X52250815Y-32315415D01*
X52250500Y-32306516D01*
X52250500Y-31059041D01*
X52270502Y-30990920D01*
X52287638Y-30969713D01*
X52329583Y-30927987D01*
X52391984Y-30894125D01*
X52462786Y-30899375D01*
G37*
%TD.AperFunction*%
%TA.AperFunction,Conductor*%
G36*
X55002786Y-30899375D02*
G01*
X55042999Y-30923899D01*
X55088054Y-30964680D01*
X55125136Y-31025223D01*
X55129500Y-31058096D01*
X55129500Y-33626419D01*
X55128597Y-33637119D01*
X55128908Y-33637142D01*
X55128469Y-33643116D01*
X55127463Y-33649034D01*
X55127594Y-33655035D01*
X55129470Y-33741015D01*
X55129500Y-33743764D01*
X55129500Y-33782469D01*
X55130196Y-33789763D01*
X55130735Y-33798964D01*
X55132044Y-33858981D01*
X55133305Y-33864840D01*
X55133306Y-33864845D01*
X55139034Y-33891450D01*
X55141286Y-33906001D01*
X55144439Y-33939046D01*
X55146129Y-33944806D01*
X55146129Y-33944807D01*
X55161338Y-33996653D01*
X55163610Y-34005600D01*
X55176242Y-34064271D01*
X55182348Y-34078620D01*
X55189242Y-34094823D01*
X55194200Y-34108669D01*
X55203553Y-34140549D01*
X55231042Y-34193922D01*
X55234958Y-34202264D01*
X55258462Y-34257502D01*
X55261813Y-34262479D01*
X55277005Y-34285045D01*
X55284501Y-34297719D01*
X55299705Y-34327239D01*
X55336780Y-34374438D01*
X55342214Y-34381903D01*
X55373203Y-34427933D01*
X55373207Y-34427938D01*
X55375739Y-34431699D01*
X55379452Y-34435794D01*
X55399870Y-34456212D01*
X55409860Y-34467473D01*
X55429424Y-34492379D01*
X55433950Y-34496306D01*
X55433959Y-34496316D01*
X55476072Y-34532859D01*
X55482587Y-34538929D01*
X58148583Y-37204926D01*
X58155512Y-37213132D01*
X58155748Y-37212929D01*
X58159671Y-37217473D01*
X58163137Y-37222360D01*
X58167464Y-37226502D01*
X58229607Y-37285991D01*
X58231571Y-37287914D01*
X58258930Y-37315273D01*
X58261255Y-37317193D01*
X58264576Y-37319936D01*
X58271474Y-37326071D01*
X58310495Y-37363425D01*
X58310500Y-37363429D01*
X58314831Y-37367575D01*
X58342727Y-37385587D01*
X58354600Y-37394276D01*
X58380211Y-37415426D01*
X58385473Y-37418301D01*
X58385476Y-37418303D01*
X58432880Y-37444202D01*
X58440817Y-37448924D01*
X58486202Y-37478229D01*
X58486209Y-37478233D01*
X58491246Y-37481485D01*
X58522054Y-37493901D01*
X58535350Y-37500187D01*
X58564495Y-37516110D01*
X58570211Y-37517940D01*
X58570214Y-37517941D01*
X58621662Y-37534409D01*
X58630349Y-37537545D01*
X58686019Y-37559981D01*
X58691907Y-37561131D01*
X58691914Y-37561133D01*
X58718615Y-37566348D01*
X58732868Y-37570007D01*
X58764494Y-37580130D01*
X58770444Y-37580845D01*
X58770445Y-37580845D01*
X58824096Y-37587290D01*
X58833216Y-37588727D01*
X58875678Y-37597019D01*
X58892122Y-37600230D01*
X58897643Y-37600500D01*
X58926521Y-37600500D01*
X58941549Y-37601399D01*
X58967044Y-37604462D01*
X58967048Y-37604462D01*
X58972991Y-37605176D01*
X58978967Y-37604753D01*
X58978970Y-37604753D01*
X59034589Y-37600815D01*
X59043487Y-37600500D01*
X67491968Y-37600500D01*
X67560089Y-37620502D01*
X67581063Y-37637405D01*
X69862595Y-39918937D01*
X69896621Y-39981249D01*
X69899500Y-40008032D01*
X69899500Y-41723413D01*
X69879498Y-41791534D01*
X69825842Y-41838027D01*
X69755568Y-41848131D01*
X69703408Y-41828118D01*
X69578817Y-41744711D01*
X69388623Y-41665541D01*
X69186673Y-41624821D01*
X69182007Y-41624585D01*
X69182002Y-41624584D01*
X69181925Y-41624580D01*
X69181907Y-41624580D01*
X69180337Y-41624500D01*
X69178740Y-41624500D01*
X68456602Y-41624501D01*
X67739664Y-41624501D01*
X67738108Y-41624580D01*
X67738091Y-41624580D01*
X67737997Y-41624585D01*
X67737995Y-41624585D01*
X67733327Y-41624821D01*
X67531377Y-41665541D01*
X67341183Y-41744711D01*
X67169989Y-41859316D01*
X67024316Y-42004989D01*
X66909711Y-42176183D01*
X66830541Y-42366377D01*
X66789821Y-42568327D01*
X66789500Y-42574663D01*
X66789501Y-44465336D01*
X66789821Y-44471673D01*
X66830541Y-44673623D01*
X66909711Y-44863817D01*
X67024316Y-45035011D01*
X67169989Y-45180684D01*
X67175107Y-45184110D01*
X67175114Y-45184116D01*
X67203594Y-45203182D01*
X67249074Y-45257699D01*
X67259500Y-45307885D01*
X67259500Y-46990545D01*
X67239498Y-47058666D01*
X67222596Y-47079640D01*
X67039642Y-47262595D01*
X66977330Y-47296620D01*
X66950546Y-47299500D01*
X56286500Y-47299500D01*
X56218379Y-47279498D01*
X56171886Y-47225842D01*
X56160500Y-47173500D01*
X56160500Y-45307885D01*
X56180502Y-45239764D01*
X56216406Y-45203182D01*
X56244886Y-45184116D01*
X56244893Y-45184110D01*
X56250011Y-45180684D01*
X56333393Y-45097302D01*
X56395705Y-45063276D01*
X56466520Y-45068341D01*
X56491936Y-45081264D01*
X56685186Y-45208932D01*
X56689527Y-45210933D01*
X56689532Y-45210936D01*
X56911645Y-45313331D01*
X56911648Y-45313332D01*
X56915997Y-45315337D01*
X56920599Y-45316661D01*
X57155654Y-45384285D01*
X57155659Y-45384286D01*
X57160247Y-45385606D01*
X57355115Y-45410742D01*
X57407578Y-45417509D01*
X57407580Y-45417509D01*
X57412316Y-45418120D01*
X57547059Y-45414945D01*
X57661622Y-45412245D01*
X57661627Y-45412245D01*
X57666402Y-45412132D01*
X57747283Y-45397798D01*
X57911955Y-45368614D01*
X57911959Y-45368613D01*
X57916659Y-45367780D01*
X58157328Y-45286084D01*
X58382870Y-45168924D01*
X58588096Y-45018996D01*
X58594701Y-45012426D01*
X58738944Y-44868936D01*
X58768282Y-44839751D01*
X58771123Y-44835905D01*
X58771127Y-44835900D01*
X58916437Y-44639166D01*
X58916438Y-44639165D01*
X58919282Y-44635314D01*
X59002964Y-44476261D01*
X59035397Y-44414616D01*
X59035399Y-44414611D01*
X59037621Y-44410388D01*
X59120576Y-44170150D01*
X59166238Y-43920129D01*
X59170500Y-43838804D01*
X59170500Y-43230375D01*
X59156138Y-43041575D01*
X59098750Y-42793982D01*
X59004570Y-42557919D01*
X58875767Y-42338817D01*
X58715304Y-42141720D01*
X58641945Y-42075319D01*
X58604864Y-42014776D01*
X58600500Y-41981904D01*
X58600500Y-38838247D01*
X58601403Y-38827547D01*
X58601092Y-38827524D01*
X58601531Y-38821550D01*
X58602537Y-38815632D01*
X58600530Y-38723652D01*
X58600500Y-38720903D01*
X58600500Y-38682197D01*
X58599804Y-38674903D01*
X58599265Y-38665695D01*
X58598087Y-38611683D01*
X58598087Y-38611681D01*
X58597956Y-38605686D01*
X58590966Y-38573217D01*
X58588714Y-38558666D01*
X58586131Y-38531596D01*
X58585561Y-38525620D01*
X58568666Y-38468031D01*
X58566392Y-38459080D01*
X58553758Y-38400395D01*
X58540759Y-38369845D01*
X58535796Y-38355982D01*
X58528137Y-38329877D01*
X58528136Y-38329875D01*
X58526447Y-38324117D01*
X58498963Y-38270754D01*
X58495038Y-38262394D01*
X58473885Y-38212680D01*
X58473883Y-38212677D01*
X58471538Y-38207165D01*
X58468189Y-38202190D01*
X58452990Y-38179613D01*
X58445495Y-38166940D01*
X58430295Y-38137427D01*
X58426589Y-38132709D01*
X58393223Y-38090232D01*
X58387789Y-38082766D01*
X58356799Y-38036736D01*
X58354262Y-38032967D01*
X58350549Y-38028873D01*
X58330130Y-38008454D01*
X58320139Y-37997192D01*
X58304281Y-37977004D01*
X58300576Y-37972287D01*
X58253926Y-37931806D01*
X58247412Y-37925736D01*
X54827405Y-34505729D01*
X54793379Y-34443417D01*
X54790500Y-34416634D01*
X54790500Y-31059041D01*
X54810502Y-30990920D01*
X54827638Y-30969713D01*
X54869583Y-30927987D01*
X54931984Y-30894125D01*
X55002786Y-30899375D01*
G37*
%TD.AperFunction*%
%TD*%
M02*
