M48
; DRILL file {KiCad (6.0.0-rc1-76-g1e8284bc1a)} date Wed Sep 28 09:08:05 2022
; FORMAT={-:-/ absolute / inch / decimal}
; #@! TF.CreationDate,2022-09-28T09:08:05+05:30
; #@! TF.GenerationSoftware,Kicad,Pcbnew,(6.0.0-rc1-76-g1e8284bc1a)
; #@! TF.FileFunction,Plated,1,2,PTH
FMAT,2
INCH
; #@! TA.AperFunction,Plated,PTH,ComponentDrill
T1C0.0469
; #@! TA.AperFunction,Plated,PTH,ComponentDrill
T2C0.1181
%
G90
G05
T1
X1.6323Y-1.7134
X1.7323Y-1.7134
X1.8138Y-1.1622
X1.8323Y-1.7134
X1.9138Y-1.1622
X1.9291Y-2.2244
X2.0138Y-1.1622
X2.0291Y-2.2244
X2.1138Y-1.1622
X2.1638Y-1.7134
X2.2138Y-1.1622
X2.2638Y-1.7134
X2.3138Y-1.1622
X2.3638Y-1.7134
X2.4138Y-1.1622
X2.5138Y-1.1622
X2.5197Y-2.2244
X2.6138Y-1.1622
X2.6197Y-2.2244
X2.6953Y-1.7134
X2.7138Y-1.1622
X2.7953Y-1.7134
X2.8953Y-1.7134
T2
X1.5551Y-1.1614
X1.5551Y-2.5787
X2.9724Y-1.1614
X2.9724Y-2.5787
T0
M30
