%TF.GenerationSoftware,KiCad,Pcbnew,(6.0.0-rc1-76-g1e8284bc1a)*%
%TF.CreationDate,2022-09-28T09:07:56+05:30*%
%TF.ProjectId,extension_Board,65787465-6e73-4696-9f6e-5f426f617264,rev?*%
%TF.SameCoordinates,Original*%
%TF.FileFunction,Legend,Bot*%
%TF.FilePolarity,Positive*%
%FSLAX46Y46*%
G04 Gerber Fmt 4.6, Leading zero omitted, Abs format (unit mm)*
G04 Created by KiCad (PCBNEW (6.0.0-rc1-76-g1e8284bc1a)) date 2022-09-28 09:07:56*
%MOMM*%
%LPD*%
G01*
G04 APERTURE LIST*
%ADD10C,0.150000*%
G04 APERTURE END LIST*
D10*
X59523809Y-62952380D02*
X59190476Y-63952380D01*
X58857142Y-62952380D01*
X58000000Y-63952380D02*
X58571428Y-63952380D01*
X58285714Y-63952380D02*
X58285714Y-62952380D01*
X58380952Y-63095238D01*
X58476190Y-63190476D01*
X58571428Y-63238095D01*
X57571428Y-63857142D02*
X57523809Y-63904761D01*
X57571428Y-63952380D01*
X57619047Y-63904761D01*
X57571428Y-63857142D01*
X57571428Y-63952380D01*
X56904761Y-62952380D02*
X56809523Y-62952380D01*
X56714285Y-63000000D01*
X56666666Y-63047619D01*
X56619047Y-63142857D01*
X56571428Y-63333333D01*
X56571428Y-63571428D01*
X56619047Y-63761904D01*
X56666666Y-63857142D01*
X56714285Y-63904761D01*
X56809523Y-63952380D01*
X56904761Y-63952380D01*
X57000000Y-63904761D01*
X57047619Y-63857142D01*
X57095238Y-63761904D01*
X57142857Y-63571428D01*
X57142857Y-63333333D01*
X57095238Y-63142857D01*
X57047619Y-63047619D01*
X57000000Y-63000000D01*
X56904761Y-62952380D01*
X63214285Y-61952380D02*
X63214285Y-60952380D01*
X63214285Y-61428571D02*
X62642857Y-61428571D01*
X62642857Y-61952380D02*
X62642857Y-60952380D01*
X61976190Y-60952380D02*
X61785714Y-60952380D01*
X61690476Y-61000000D01*
X61595238Y-61095238D01*
X61547619Y-61285714D01*
X61547619Y-61619047D01*
X61595238Y-61809523D01*
X61690476Y-61904761D01*
X61785714Y-61952380D01*
X61976190Y-61952380D01*
X62071428Y-61904761D01*
X62166666Y-61809523D01*
X62214285Y-61619047D01*
X62214285Y-61285714D01*
X62166666Y-61095238D01*
X62071428Y-61000000D01*
X61976190Y-60952380D01*
X61119047Y-60952380D02*
X61119047Y-61761904D01*
X61071428Y-61857142D01*
X61023809Y-61904761D01*
X60928571Y-61952380D01*
X60738095Y-61952380D01*
X60642857Y-61904761D01*
X60595238Y-61857142D01*
X60547619Y-61761904D01*
X60547619Y-60952380D01*
X60119047Y-61904761D02*
X59976190Y-61952380D01*
X59738095Y-61952380D01*
X59642857Y-61904761D01*
X59595238Y-61857142D01*
X59547619Y-61761904D01*
X59547619Y-61666666D01*
X59595238Y-61571428D01*
X59642857Y-61523809D01*
X59738095Y-61476190D01*
X59928571Y-61428571D01*
X60023809Y-61380952D01*
X60071428Y-61333333D01*
X60119047Y-61238095D01*
X60119047Y-61142857D01*
X60071428Y-61047619D01*
X60023809Y-61000000D01*
X59928571Y-60952380D01*
X59690476Y-60952380D01*
X59547619Y-61000000D01*
X59119047Y-61428571D02*
X58785714Y-61428571D01*
X58642857Y-61952380D02*
X59119047Y-61952380D01*
X59119047Y-60952380D01*
X58642857Y-60952380D01*
X57261904Y-60952380D02*
X57071428Y-60952380D01*
X56976190Y-61000000D01*
X56880952Y-61095238D01*
X56833333Y-61285714D01*
X56833333Y-61619047D01*
X56880952Y-61809523D01*
X56976190Y-61904761D01*
X57071428Y-61952380D01*
X57261904Y-61952380D01*
X57357142Y-61904761D01*
X57452380Y-61809523D01*
X57500000Y-61619047D01*
X57500000Y-61285714D01*
X57452380Y-61095238D01*
X57357142Y-61000000D01*
X57261904Y-60952380D01*
X56071428Y-61428571D02*
X56404761Y-61428571D01*
X56404761Y-61952380D02*
X56404761Y-60952380D01*
X55928571Y-60952380D01*
X54261904Y-61000000D02*
X54357142Y-60952380D01*
X54500000Y-60952380D01*
X54642857Y-61000000D01*
X54738095Y-61095238D01*
X54785714Y-61190476D01*
X54833333Y-61380952D01*
X54833333Y-61523809D01*
X54785714Y-61714285D01*
X54738095Y-61809523D01*
X54642857Y-61904761D01*
X54500000Y-61952380D01*
X54404761Y-61952380D01*
X54261904Y-61904761D01*
X54214285Y-61857142D01*
X54214285Y-61523809D01*
X54404761Y-61523809D01*
X53214285Y-61952380D02*
X53547619Y-61476190D01*
X53785714Y-61952380D02*
X53785714Y-60952380D01*
X53404761Y-60952380D01*
X53309523Y-61000000D01*
X53261904Y-61047619D01*
X53214285Y-61142857D01*
X53214285Y-61285714D01*
X53261904Y-61380952D01*
X53309523Y-61428571D01*
X53404761Y-61476190D01*
X53785714Y-61476190D01*
X52785714Y-61952380D02*
X52785714Y-60952380D01*
X52309523Y-61952380D02*
X52309523Y-60952380D01*
X52071428Y-60952380D01*
X51928571Y-61000000D01*
X51833333Y-61095238D01*
X51785714Y-61190476D01*
X51738095Y-61380952D01*
X51738095Y-61523809D01*
X51785714Y-61714285D01*
X51833333Y-61809523D01*
X51928571Y-61904761D01*
X52071428Y-61952380D01*
X52309523Y-61952380D01*
%TO.C,G\u002A\u002A\u002A*%
G36*
X55711888Y-52799425D02*
G01*
X55673714Y-52843912D01*
X55638899Y-52872414D01*
X55631581Y-52871729D01*
X55631299Y-52844555D01*
X55696141Y-52783678D01*
X55726361Y-52760380D01*
X55747959Y-52750023D01*
X55711888Y-52799425D01*
G37*
G36*
X55623152Y-52726437D02*
G01*
X55602298Y-52747291D01*
X55581445Y-52726437D01*
X55602298Y-52705583D01*
X55623152Y-52726437D01*
G37*
G36*
X55498029Y-51975698D02*
G01*
X55477175Y-51996552D01*
X55456321Y-51975698D01*
X55477175Y-51954844D01*
X55498029Y-51975698D01*
G37*
G36*
X61295402Y-54582430D02*
G01*
X61292392Y-54604510D01*
X61267597Y-54610235D01*
X61262605Y-54604122D01*
X61267597Y-54554625D01*
X61280142Y-54548100D01*
X61295402Y-54582430D01*
G37*
G36*
X55915106Y-52517898D02*
G01*
X55894252Y-52538752D01*
X55873399Y-52517898D01*
X55894252Y-52497044D01*
X55915106Y-52517898D01*
G37*
G36*
X61170279Y-54874384D02*
G01*
X61167269Y-54896464D01*
X61142474Y-54902189D01*
X61137482Y-54896076D01*
X61142474Y-54846579D01*
X61155019Y-54840054D01*
X61170279Y-54874384D01*
G37*
G36*
X55998522Y-51621611D02*
G01*
X55994818Y-51635521D01*
X55946387Y-51673317D01*
X55889746Y-51687213D01*
X55824572Y-51686568D01*
X55812022Y-51660973D01*
X55832996Y-51641288D01*
X55898921Y-51613719D01*
X55967113Y-51604413D01*
X55998522Y-51621611D01*
G37*
G36*
X61230159Y-54719779D02*
G01*
X61209359Y-54758702D01*
X61178334Y-54771219D01*
X61173867Y-54751115D01*
X61206811Y-54696431D01*
X61212304Y-54691042D01*
X61242857Y-54671053D01*
X61230159Y-54719779D01*
G37*
G36*
X55873399Y-51788013D02*
G01*
X55870389Y-51810093D01*
X55845593Y-51815818D01*
X55840602Y-51809705D01*
X55845593Y-51760208D01*
X55858138Y-51753683D01*
X55873399Y-51788013D01*
G37*
G36*
X56871294Y-52225944D02*
G01*
X56578781Y-52379448D01*
X56486424Y-52427915D01*
X56073298Y-52723101D01*
X55703262Y-53073209D01*
X55382916Y-53473921D01*
X55118859Y-53920922D01*
X54917691Y-54409895D01*
X54786011Y-54936524D01*
X54763600Y-55136064D01*
X54754347Y-55406945D01*
X54759798Y-55706517D01*
X54778776Y-56007141D01*
X54810105Y-56281177D01*
X54852607Y-56500985D01*
X54897799Y-56651538D01*
X55011277Y-56946532D01*
X55155385Y-57254572D01*
X55314769Y-57543985D01*
X55474077Y-57783097D01*
X55478029Y-57788290D01*
X55613187Y-57951406D01*
X55776668Y-58129020D01*
X55933973Y-58283589D01*
X56196618Y-58523810D01*
X56219784Y-58851102D01*
X56241783Y-59039835D01*
X56324491Y-59335737D01*
X56470424Y-59593550D01*
X56688544Y-59832032D01*
X56705196Y-59847315D01*
X56743274Y-59883468D01*
X56812075Y-59948791D01*
X56887516Y-60026235D01*
X56916092Y-60063923D01*
X56911604Y-60079644D01*
X56886669Y-60083194D01*
X56827152Y-60066367D01*
X56719023Y-60025008D01*
X56548250Y-59954960D01*
X56467312Y-59920531D01*
X55911763Y-59634600D01*
X55406292Y-59285858D01*
X54954888Y-58880227D01*
X54561536Y-58423629D01*
X54230224Y-57921987D01*
X53964939Y-57381222D01*
X53769668Y-56807258D01*
X53648399Y-56206015D01*
X53605117Y-55583415D01*
X53605075Y-55543170D01*
X53605168Y-55541708D01*
X53687484Y-55541708D01*
X53697985Y-55941694D01*
X53737607Y-56321599D01*
X53811113Y-56678921D01*
X53923137Y-57043186D01*
X53999876Y-57247845D01*
X54272134Y-57823082D01*
X54608907Y-58346422D01*
X55008528Y-58815815D01*
X55469326Y-59229206D01*
X55989634Y-59584546D01*
X55997226Y-59589034D01*
X56158032Y-59680207D01*
X56313035Y-59761919D01*
X56429662Y-59816965D01*
X56589702Y-59883468D01*
X56462845Y-59724985D01*
X56335064Y-59537397D01*
X56196605Y-59214900D01*
X56132053Y-58860534D01*
X56111287Y-58570299D01*
X55812086Y-58275954D01*
X55445676Y-57870139D01*
X55141246Y-57424717D01*
X54911903Y-56948753D01*
X54754253Y-56435148D01*
X54664903Y-55876806D01*
X54648052Y-55590592D01*
X54677822Y-55046783D01*
X54790051Y-54513524D01*
X54985098Y-53988709D01*
X55142446Y-53673127D01*
X55328693Y-53375065D01*
X55551355Y-53093336D01*
X55829517Y-52801097D01*
X55833541Y-52797145D01*
X55965048Y-52664270D01*
X56065551Y-52555603D01*
X56125253Y-52482255D01*
X56134359Y-52455337D01*
X56117054Y-52457942D01*
X56058331Y-52501497D01*
X56035836Y-52523358D01*
X55996313Y-52493471D01*
X55986375Y-52458478D01*
X56024267Y-52394356D01*
X56025718Y-52392775D01*
X56123645Y-52392775D01*
X56144499Y-52413629D01*
X56207060Y-52413629D01*
X56208372Y-52439216D01*
X56227716Y-52450047D01*
X56290476Y-52413629D01*
X56298465Y-52408404D01*
X56328346Y-52379448D01*
X56280049Y-52372560D01*
X56241450Y-52378574D01*
X56227518Y-52392775D01*
X56207060Y-52413629D01*
X56144499Y-52413629D01*
X56165353Y-52392775D01*
X56144499Y-52371921D01*
X56123645Y-52392775D01*
X56025718Y-52392775D01*
X56060045Y-52355381D01*
X56059238Y-52298376D01*
X56032582Y-52225944D01*
X56207060Y-52225944D01*
X56227914Y-52246798D01*
X56248768Y-52225944D01*
X56227914Y-52205090D01*
X56207060Y-52225944D01*
X56032582Y-52225944D01*
X56021262Y-52195183D01*
X56002822Y-52142529D01*
X56540722Y-52142529D01*
X56561576Y-52163383D01*
X56582430Y-52142529D01*
X56561576Y-52121675D01*
X56540722Y-52142529D01*
X56002822Y-52142529D01*
X55990996Y-52108759D01*
X55960501Y-51929658D01*
X55972190Y-51769829D01*
X56010575Y-51688206D01*
X56081937Y-51688206D01*
X56093497Y-51703744D01*
X56141302Y-51697942D01*
X56185911Y-51663368D01*
X56189719Y-51644061D01*
X56146665Y-51646976D01*
X56114653Y-51661420D01*
X56081937Y-51688206D01*
X56010575Y-51688206D01*
X56025840Y-51655747D01*
X56041420Y-51638057D01*
X56069257Y-51591122D01*
X56036267Y-51578148D01*
X56011013Y-51562734D01*
X56058628Y-51515587D01*
X56101387Y-51474451D01*
X56095016Y-51454351D01*
X56062792Y-51464261D01*
X55998522Y-51516913D01*
X55962614Y-51550217D01*
X55893092Y-51579475D01*
X55858845Y-51590840D01*
X55771777Y-51643820D01*
X55664860Y-51725452D01*
X55593308Y-51782926D01*
X55504700Y-51846649D01*
X55456161Y-51871429D01*
X55456108Y-51871429D01*
X55414791Y-51899446D01*
X55327761Y-51975347D01*
X55207738Y-52087577D01*
X55067439Y-52224581D01*
X54719749Y-52607488D01*
X54398628Y-53054959D01*
X54129210Y-53548215D01*
X53901854Y-54102791D01*
X53834393Y-54313545D01*
X53751345Y-54680627D01*
X53703448Y-55082812D01*
X53687484Y-55541708D01*
X53605168Y-55541708D01*
X53645982Y-54900571D01*
X53764832Y-54287203D01*
X53960995Y-53704611D01*
X54233839Y-53154335D01*
X54582732Y-52637920D01*
X55007045Y-52156906D01*
X55367262Y-51828041D01*
X55836408Y-51487097D01*
X56345451Y-51209275D01*
X56903797Y-50989584D01*
X57520853Y-50823034D01*
X57563469Y-50814844D01*
X57754411Y-50792101D01*
X57998986Y-50777284D01*
X58274464Y-50770402D01*
X58558119Y-50771464D01*
X58827224Y-50780477D01*
X59059050Y-50797452D01*
X59230870Y-50822395D01*
X59526674Y-50893813D01*
X59882846Y-50998811D01*
X60210004Y-51115405D01*
X60481067Y-51234662D01*
X60506891Y-51247745D01*
X60691183Y-51346790D01*
X60860314Y-51446629D01*
X60999468Y-51537649D01*
X61093826Y-51610236D01*
X61120212Y-51644061D01*
X61128571Y-51654776D01*
X61125637Y-51658586D01*
X61068349Y-51669044D01*
X60952949Y-51672945D01*
X60799243Y-51669407D01*
X60723747Y-51667088D01*
X60389767Y-51690376D01*
X60092280Y-51775119D01*
X59809207Y-51927063D01*
X59595097Y-52068776D01*
X59287860Y-51992037D01*
X58967436Y-51926877D01*
X58437847Y-51882711D01*
X57918353Y-51915048D01*
X57415551Y-52019572D01*
X57073550Y-52142529D01*
X56936042Y-52191966D01*
X56871294Y-52225944D01*
G37*
G36*
X55915106Y-52392775D02*
G01*
X55894252Y-52413629D01*
X55873399Y-52392775D01*
X55894252Y-52371921D01*
X55915106Y-52392775D01*
G37*
G36*
X55873399Y-52726437D02*
G01*
X55852545Y-52747291D01*
X55831691Y-52726437D01*
X55852545Y-52705583D01*
X55873399Y-52726437D01*
G37*
G36*
X55873399Y-51933990D02*
G01*
X55852545Y-51954844D01*
X55831691Y-51933990D01*
X55852545Y-51913136D01*
X55873399Y-51933990D01*
G37*
G36*
X61501088Y-55020361D02*
G01*
X61503940Y-55122468D01*
X61492775Y-55380847D01*
X61411397Y-55862369D01*
X61255508Y-56320754D01*
X61141064Y-56537359D01*
X61061119Y-56688670D01*
X61030249Y-56747098D01*
X61016702Y-56765134D01*
X60740761Y-57132503D01*
X60392181Y-57468065D01*
X59989652Y-57744885D01*
X59896766Y-57794032D01*
X59776778Y-57839322D01*
X59718638Y-57835787D01*
X59724855Y-57790612D01*
X59797944Y-57710980D01*
X59940414Y-57604073D01*
X60047044Y-57526796D01*
X60198667Y-57399153D01*
X60317669Y-57279326D01*
X60465019Y-57107180D01*
X60348437Y-57071741D01*
X60287634Y-57059889D01*
X60145420Y-57044667D01*
X59951691Y-57031119D01*
X59724865Y-57019851D01*
X59483361Y-57011466D01*
X59245597Y-57006570D01*
X59029992Y-57005769D01*
X58854964Y-57009667D01*
X58738933Y-57018869D01*
X58679381Y-57028485D01*
X58590473Y-57054845D01*
X58546959Y-57105136D01*
X58522609Y-57201503D01*
X58495531Y-57312510D01*
X58420252Y-57529619D01*
X58318942Y-57763118D01*
X58205861Y-57981279D01*
X58095267Y-58152375D01*
X58093547Y-58154625D01*
X57789746Y-58487311D01*
X57688465Y-58565517D01*
X57437339Y-58759428D01*
X57048941Y-58961224D01*
X56950124Y-58999851D01*
X56835360Y-59035344D01*
X56767905Y-59037039D01*
X56730844Y-59007391D01*
X56729931Y-59004919D01*
X56760625Y-58967377D01*
X56848876Y-58909687D01*
X56977516Y-58843272D01*
X57214135Y-58710083D01*
X57388249Y-58565517D01*
X57541707Y-58565517D01*
X57562561Y-58586371D01*
X57583415Y-58565517D01*
X57562561Y-58544663D01*
X57541707Y-58565517D01*
X57388249Y-58565517D01*
X57491534Y-58479760D01*
X57708850Y-58205311D01*
X57863579Y-57897127D01*
X57953219Y-57565599D01*
X57975267Y-57221116D01*
X57927220Y-56874070D01*
X57806577Y-56534851D01*
X57610833Y-56213850D01*
X57596164Y-56195537D01*
X57501990Y-56097284D01*
X57376476Y-55984282D01*
X57242127Y-55875041D01*
X57121449Y-55788068D01*
X57036946Y-55741872D01*
X57032624Y-55738562D01*
X57018944Y-55678459D01*
X57018409Y-55660057D01*
X57082970Y-55660057D01*
X57222105Y-55746047D01*
X57294102Y-55795902D01*
X57467631Y-55948568D01*
X57642266Y-56138150D01*
X57794636Y-56337974D01*
X57901370Y-56521363D01*
X57923804Y-56572400D01*
X58034017Y-56933418D01*
X58068655Y-57303437D01*
X58028970Y-57669088D01*
X57916214Y-58016999D01*
X57731640Y-58333801D01*
X57703937Y-58371602D01*
X57647555Y-58452147D01*
X57625123Y-58490205D01*
X57631713Y-58498906D01*
X57676394Y-58471934D01*
X57753047Y-58399006D01*
X57849592Y-58293614D01*
X57953952Y-58169248D01*
X58054049Y-58039400D01*
X58137804Y-57917560D01*
X58157466Y-57885108D01*
X58241243Y-57722191D01*
X58322641Y-57531030D01*
X58392331Y-57337027D01*
X58440986Y-57165584D01*
X58459277Y-57042106D01*
X58480883Y-56987353D01*
X58573973Y-56944723D01*
X58593381Y-56941290D01*
X58737838Y-56922293D01*
X58932201Y-56903461D01*
X59148321Y-56886989D01*
X59358049Y-56875073D01*
X59533238Y-56869907D01*
X59618578Y-56866653D01*
X59706478Y-56854411D01*
X59732509Y-56836502D01*
X59733329Y-56782938D01*
X59735178Y-56777679D01*
X59801302Y-56777679D01*
X59835632Y-56792939D01*
X59857712Y-56789929D01*
X59863437Y-56765134D01*
X59857324Y-56760143D01*
X59807827Y-56765134D01*
X59801302Y-56777679D01*
X59735178Y-56777679D01*
X59763264Y-56697777D01*
X59768274Y-56688670D01*
X59877340Y-56688670D01*
X59898193Y-56709524D01*
X59919047Y-56688670D01*
X59898193Y-56667816D01*
X59877340Y-56688670D01*
X59768274Y-56688670D01*
X59806417Y-56619340D01*
X59846059Y-56584726D01*
X59855609Y-56582371D01*
X59877340Y-56537359D01*
X59864018Y-56524042D01*
X59795006Y-56510604D01*
X59661557Y-56503715D01*
X59457412Y-56503118D01*
X59176312Y-56508555D01*
X58475284Y-56526794D01*
X58424434Y-56258736D01*
X58386483Y-56096819D01*
X58240227Y-55717631D01*
X58023190Y-55362268D01*
X57744157Y-55043610D01*
X57411916Y-54774537D01*
X57187192Y-54623010D01*
X57160798Y-54842540D01*
X57145906Y-54975842D01*
X57126223Y-55170379D01*
X57108687Y-55361063D01*
X57082970Y-55660057D01*
X57018409Y-55660057D01*
X57015449Y-55558263D01*
X57020554Y-55395907D01*
X57032675Y-55209326D01*
X57050227Y-55016453D01*
X57071627Y-54835222D01*
X57095289Y-54683567D01*
X57119630Y-54579423D01*
X57143064Y-54540723D01*
X57151777Y-54541698D01*
X57229747Y-54573784D01*
X57348994Y-54641636D01*
X57489102Y-54732196D01*
X57629657Y-54832401D01*
X57750246Y-54929192D01*
X57764542Y-54941823D01*
X58015190Y-55209485D01*
X58232698Y-55527066D01*
X58401839Y-55868828D01*
X58507384Y-56209031D01*
X58554998Y-56438424D01*
X59175055Y-56424160D01*
X59401357Y-56422030D01*
X59691534Y-56427572D01*
X59953376Y-56441485D01*
X60159460Y-56462693D01*
X60336411Y-56487980D01*
X60528422Y-56511931D01*
X60660970Y-56519327D01*
X60747604Y-56507707D01*
X60801876Y-56474611D01*
X60837333Y-56417580D01*
X60867526Y-56334154D01*
X60876866Y-56302370D01*
X60908070Y-56128509D01*
X60927586Y-55904202D01*
X60935114Y-55655343D01*
X60930353Y-55407822D01*
X60913003Y-55187531D01*
X60882764Y-55020361D01*
X60751545Y-54671565D01*
X60546711Y-54316956D01*
X60287808Y-53996392D01*
X59987896Y-53725884D01*
X59660035Y-53521442D01*
X59523370Y-53459749D01*
X59202847Y-53348894D01*
X58875636Y-53275567D01*
X58576435Y-53248507D01*
X58514718Y-53246727D01*
X58411410Y-53235145D01*
X58362383Y-53216502D01*
X58360039Y-53208947D01*
X58350373Y-53135562D01*
X58338559Y-52999838D01*
X58325877Y-52817824D01*
X58313610Y-52605571D01*
X58304014Y-52422413D01*
X58391821Y-52422413D01*
X58404983Y-52667671D01*
X58438423Y-53143514D01*
X58751231Y-53173743D01*
X58751365Y-53173756D01*
X59210348Y-53254690D01*
X59626756Y-53406204D01*
X60006872Y-53631268D01*
X60356978Y-53932852D01*
X60556760Y-54160098D01*
X60806405Y-54547420D01*
X60986363Y-54978654D01*
X61005046Y-55036634D01*
X61029429Y-55101038D01*
X61040656Y-55093807D01*
X61046555Y-55020361D01*
X61048497Y-54987971D01*
X61055043Y-54938929D01*
X61067577Y-54961091D01*
X61092053Y-55059594D01*
X61100524Y-55093863D01*
X61131339Y-55195087D01*
X61156583Y-55247278D01*
X61167794Y-55238389D01*
X61158763Y-55173992D01*
X61152010Y-55122052D01*
X61163217Y-55020429D01*
X61163242Y-55020361D01*
X61211986Y-55020361D01*
X61232840Y-55041215D01*
X61253694Y-55020361D01*
X61232840Y-54999507D01*
X61211986Y-55020361D01*
X61163242Y-55020361D01*
X61196229Y-54930787D01*
X61240718Y-54876768D01*
X61286351Y-54882016D01*
X61306653Y-54897329D01*
X61327110Y-54876667D01*
X61329604Y-54784016D01*
X61329269Y-54772472D01*
X61331933Y-54724463D01*
X61364394Y-54724463D01*
X61366733Y-54790969D01*
X61382627Y-54839995D01*
X61404536Y-54874384D01*
X61413797Y-54858861D01*
X61420525Y-54790969D01*
X61413448Y-54742520D01*
X61382722Y-54707553D01*
X61364394Y-54724463D01*
X61331933Y-54724463D01*
X61335476Y-54660607D01*
X61355047Y-54587149D01*
X61355058Y-54587131D01*
X61356204Y-54520152D01*
X61315525Y-54429484D01*
X61308943Y-54419246D01*
X61278567Y-54359426D01*
X61291076Y-54350364D01*
X61323918Y-54366711D01*
X61332971Y-54350755D01*
X61316726Y-54287038D01*
X61273782Y-54160170D01*
X61190414Y-53945080D01*
X60957505Y-53505271D01*
X60660462Y-53116954D01*
X60303020Y-52783885D01*
X59888915Y-52509819D01*
X59421883Y-52298510D01*
X59352198Y-52275878D01*
X59184399Y-52233927D01*
X58993378Y-52197714D01*
X58799998Y-52169994D01*
X58625123Y-52153527D01*
X58489619Y-52151067D01*
X58414349Y-52165373D01*
X58406815Y-52174703D01*
X58392435Y-52257866D01*
X58391821Y-52422413D01*
X58304014Y-52422413D01*
X58283240Y-52025920D01*
X58611078Y-52055624D01*
X58832969Y-52079270D01*
X59108783Y-52124185D01*
X59353476Y-52187468D01*
X59597969Y-52276024D01*
X59619562Y-52284897D01*
X60058885Y-52511672D01*
X60456265Y-52806003D01*
X60803139Y-53159235D01*
X61090945Y-53562713D01*
X61311119Y-54007780D01*
X61318491Y-54026503D01*
X61407544Y-54284558D01*
X61461689Y-54520152D01*
X61464617Y-54532890D01*
X61493743Y-54790969D01*
X61494990Y-54802020D01*
X61501088Y-55020361D01*
G37*
%TD*%
M02*
