%TF.GenerationSoftware,KiCad,Pcbnew,(6.0.0-rc1-76-g1e8284bc1a)*%
%TF.CreationDate,2022-09-28T09:07:56+05:30*%
%TF.ProjectId,extension_Board,65787465-6e73-4696-9f6e-5f426f617264,rev?*%
%TF.SameCoordinates,Original*%
%TF.FileFunction,AssemblyDrawing,Top*%
%FSLAX46Y46*%
G04 Gerber Fmt 4.6, Leading zero omitted, Abs format (unit mm)*
G04 Created by KiCad (PCBNEW (6.0.0-rc1-76-g1e8284bc1a)) date 2022-09-28 09:07:56*
%MOMM*%
%LPD*%
G01*
G04 APERTURE LIST*
%ADD10C,0.150000*%
%ADD11C,0.050000*%
%ADD12C,0.100000*%
G04 APERTURE END LIST*
D10*
%TO.C,J6*%
X46531904Y-60937142D02*
X46484285Y-60984761D01*
X46341428Y-61032380D01*
X46246190Y-61032380D01*
X46103333Y-60984761D01*
X46008095Y-60889523D01*
X45960476Y-60794285D01*
X45912857Y-60603809D01*
X45912857Y-60460952D01*
X45960476Y-60270476D01*
X46008095Y-60175238D01*
X46103333Y-60080000D01*
X46246190Y-60032380D01*
X46341428Y-60032380D01*
X46484285Y-60080000D01*
X46531904Y-60127619D01*
X47103333Y-61032380D02*
X47008095Y-60984761D01*
X46960476Y-60937142D01*
X46912857Y-60841904D01*
X46912857Y-60556190D01*
X46960476Y-60460952D01*
X47008095Y-60413333D01*
X47103333Y-60365714D01*
X47246190Y-60365714D01*
X47341428Y-60413333D01*
X47389047Y-60460952D01*
X47436666Y-60556190D01*
X47436666Y-60841904D01*
X47389047Y-60937142D01*
X47341428Y-60984761D01*
X47246190Y-61032380D01*
X47103333Y-61032380D01*
X47865238Y-60365714D02*
X47865238Y-61032380D01*
X47865238Y-60460952D02*
X47912857Y-60413333D01*
X48008095Y-60365714D01*
X48150952Y-60365714D01*
X48246190Y-60413333D01*
X48293809Y-60508571D01*
X48293809Y-61032380D01*
X48770000Y-60365714D02*
X48770000Y-61032380D01*
X48770000Y-60460952D02*
X48817619Y-60413333D01*
X48912857Y-60365714D01*
X49055714Y-60365714D01*
X49150952Y-60413333D01*
X49198571Y-60508571D01*
X49198571Y-61032380D01*
X49436666Y-61127619D02*
X50198571Y-61127619D01*
X50627142Y-60032380D02*
X50722380Y-60032380D01*
X50817619Y-60080000D01*
X50865238Y-60127619D01*
X50912857Y-60222857D01*
X50960476Y-60413333D01*
X50960476Y-60651428D01*
X50912857Y-60841904D01*
X50865238Y-60937142D01*
X50817619Y-60984761D01*
X50722380Y-61032380D01*
X50627142Y-61032380D01*
X50531904Y-60984761D01*
X50484285Y-60937142D01*
X50436666Y-60841904D01*
X50389047Y-60651428D01*
X50389047Y-60413333D01*
X50436666Y-60222857D01*
X50484285Y-60127619D01*
X50531904Y-60080000D01*
X50627142Y-60032380D01*
X51912857Y-61032380D02*
X51341428Y-61032380D01*
X51627142Y-61032380D02*
X51627142Y-60032380D01*
X51531904Y-60175238D01*
X51436666Y-60270476D01*
X51341428Y-60318095D01*
X52246190Y-61032380D02*
X52770000Y-60365714D01*
X52246190Y-60365714D02*
X52770000Y-61032380D01*
X53341428Y-60032380D02*
X53436666Y-60032380D01*
X53531904Y-60080000D01*
X53579523Y-60127619D01*
X53627142Y-60222857D01*
X53674761Y-60413333D01*
X53674761Y-60651428D01*
X53627142Y-60841904D01*
X53579523Y-60937142D01*
X53531904Y-60984761D01*
X53436666Y-61032380D01*
X53341428Y-61032380D01*
X53246190Y-60984761D01*
X53198571Y-60937142D01*
X53150952Y-60841904D01*
X53103333Y-60651428D01*
X53103333Y-60413333D01*
X53150952Y-60222857D01*
X53198571Y-60127619D01*
X53246190Y-60080000D01*
X53341428Y-60032380D01*
X54055714Y-60127619D02*
X54103333Y-60080000D01*
X54198571Y-60032380D01*
X54436666Y-60032380D01*
X54531904Y-60080000D01*
X54579523Y-60127619D01*
X54627142Y-60222857D01*
X54627142Y-60318095D01*
X54579523Y-60460952D01*
X54008095Y-61032380D01*
X54627142Y-61032380D01*
X49936666Y-53732380D02*
X49936666Y-54446666D01*
X49889047Y-54589523D01*
X49793809Y-54684761D01*
X49650952Y-54732380D01*
X49555714Y-54732380D01*
X50841428Y-53732380D02*
X50650952Y-53732380D01*
X50555714Y-53780000D01*
X50508095Y-53827619D01*
X50412857Y-53970476D01*
X50365238Y-54160952D01*
X50365238Y-54541904D01*
X50412857Y-54637142D01*
X50460476Y-54684761D01*
X50555714Y-54732380D01*
X50746190Y-54732380D01*
X50841428Y-54684761D01*
X50889047Y-54637142D01*
X50936666Y-54541904D01*
X50936666Y-54303809D01*
X50889047Y-54208571D01*
X50841428Y-54160952D01*
X50746190Y-54113333D01*
X50555714Y-54113333D01*
X50460476Y-54160952D01*
X50412857Y-54208571D01*
X50365238Y-54303809D01*
%TO.C,FID1*%
X75119047Y-36428571D02*
X74785714Y-36428571D01*
X74785714Y-36952380D02*
X74785714Y-35952380D01*
X75261904Y-35952380D01*
X75642857Y-36952380D02*
X75642857Y-36285714D01*
X75642857Y-35952380D02*
X75595238Y-36000000D01*
X75642857Y-36047619D01*
X75690476Y-36000000D01*
X75642857Y-35952380D01*
X75642857Y-36047619D01*
X76547619Y-36952380D02*
X76547619Y-35952380D01*
X76547619Y-36904761D02*
X76452380Y-36952380D01*
X76261904Y-36952380D01*
X76166666Y-36904761D01*
X76119047Y-36857142D01*
X76071428Y-36761904D01*
X76071428Y-36476190D01*
X76119047Y-36380952D01*
X76166666Y-36333333D01*
X76261904Y-36285714D01*
X76452380Y-36285714D01*
X76547619Y-36333333D01*
X77452380Y-36285714D02*
X77452380Y-36952380D01*
X77023809Y-36285714D02*
X77023809Y-36809523D01*
X77071428Y-36904761D01*
X77166666Y-36952380D01*
X77309523Y-36952380D01*
X77404761Y-36904761D01*
X77452380Y-36857142D01*
X78357142Y-36904761D02*
X78261904Y-36952380D01*
X78071428Y-36952380D01*
X77976190Y-36904761D01*
X77928571Y-36857142D01*
X77880952Y-36761904D01*
X77880952Y-36476190D01*
X77928571Y-36380952D01*
X77976190Y-36333333D01*
X78071428Y-36285714D01*
X78261904Y-36285714D01*
X78357142Y-36333333D01*
X78785714Y-36952380D02*
X78785714Y-36285714D01*
X78785714Y-35952380D02*
X78738095Y-36000000D01*
X78785714Y-36047619D01*
X78833333Y-36000000D01*
X78785714Y-35952380D01*
X78785714Y-36047619D01*
X79690476Y-36952380D02*
X79690476Y-36428571D01*
X79642857Y-36333333D01*
X79547619Y-36285714D01*
X79357142Y-36285714D01*
X79261904Y-36333333D01*
X79690476Y-36904761D02*
X79595238Y-36952380D01*
X79357142Y-36952380D01*
X79261904Y-36904761D01*
X79214285Y-36809523D01*
X79214285Y-36714285D01*
X79261904Y-36619047D01*
X79357142Y-36571428D01*
X79595238Y-36571428D01*
X79690476Y-36523809D01*
X80309523Y-36952380D02*
X80214285Y-36904761D01*
X80166666Y-36809523D01*
X80166666Y-35952380D01*
D11*
X77178571Y-34478571D02*
X77078571Y-34478571D01*
X77078571Y-34635714D02*
X77078571Y-34335714D01*
X77221428Y-34335714D01*
X77335714Y-34635714D02*
X77335714Y-34335714D01*
X77478571Y-34635714D02*
X77478571Y-34335714D01*
X77550000Y-34335714D01*
X77592857Y-34350000D01*
X77621428Y-34378571D01*
X77635714Y-34407142D01*
X77650000Y-34464285D01*
X77650000Y-34507142D01*
X77635714Y-34564285D01*
X77621428Y-34592857D01*
X77592857Y-34621428D01*
X77550000Y-34635714D01*
X77478571Y-34635714D01*
X77935714Y-34635714D02*
X77764285Y-34635714D01*
X77850000Y-34635714D02*
X77850000Y-34335714D01*
X77821428Y-34378571D01*
X77792857Y-34407142D01*
X77764285Y-34421428D01*
D10*
%TO.C,H3*%
X70714285Y-69952380D02*
X70714285Y-68952380D01*
X71047619Y-69666666D01*
X71380952Y-68952380D01*
X71380952Y-69952380D01*
X72000000Y-69952380D02*
X71904761Y-69904761D01*
X71857142Y-69857142D01*
X71809523Y-69761904D01*
X71809523Y-69476190D01*
X71857142Y-69380952D01*
X71904761Y-69333333D01*
X72000000Y-69285714D01*
X72142857Y-69285714D01*
X72238095Y-69333333D01*
X72285714Y-69380952D01*
X72333333Y-69476190D01*
X72333333Y-69761904D01*
X72285714Y-69857142D01*
X72238095Y-69904761D01*
X72142857Y-69952380D01*
X72000000Y-69952380D01*
X73190476Y-69285714D02*
X73190476Y-69952380D01*
X72761904Y-69285714D02*
X72761904Y-69809523D01*
X72809523Y-69904761D01*
X72904761Y-69952380D01*
X73047619Y-69952380D01*
X73142857Y-69904761D01*
X73190476Y-69857142D01*
X73666666Y-69285714D02*
X73666666Y-69952380D01*
X73666666Y-69380952D02*
X73714285Y-69333333D01*
X73809523Y-69285714D01*
X73952380Y-69285714D01*
X74047619Y-69333333D01*
X74095238Y-69428571D01*
X74095238Y-69952380D01*
X74428571Y-69285714D02*
X74809523Y-69285714D01*
X74571428Y-68952380D02*
X74571428Y-69809523D01*
X74619047Y-69904761D01*
X74714285Y-69952380D01*
X74809523Y-69952380D01*
X75142857Y-69952380D02*
X75142857Y-69285714D01*
X75142857Y-68952380D02*
X75095238Y-69000000D01*
X75142857Y-69047619D01*
X75190476Y-69000000D01*
X75142857Y-68952380D01*
X75142857Y-69047619D01*
X75619047Y-69285714D02*
X75619047Y-69952380D01*
X75619047Y-69380952D02*
X75666666Y-69333333D01*
X75761904Y-69285714D01*
X75904761Y-69285714D01*
X76000000Y-69333333D01*
X76047619Y-69428571D01*
X76047619Y-69952380D01*
X76952380Y-69285714D02*
X76952380Y-70095238D01*
X76904761Y-70190476D01*
X76857142Y-70238095D01*
X76761904Y-70285714D01*
X76619047Y-70285714D01*
X76523809Y-70238095D01*
X76952380Y-69904761D02*
X76857142Y-69952380D01*
X76666666Y-69952380D01*
X76571428Y-69904761D01*
X76523809Y-69857142D01*
X76476190Y-69761904D01*
X76476190Y-69476190D01*
X76523809Y-69380952D01*
X76571428Y-69333333D01*
X76666666Y-69285714D01*
X76857142Y-69285714D01*
X76952380Y-69333333D01*
X77428571Y-69952380D02*
X77428571Y-68952380D01*
X77428571Y-69428571D02*
X78000000Y-69428571D01*
X78000000Y-69952380D02*
X78000000Y-68952380D01*
X78619047Y-69952380D02*
X78523809Y-69904761D01*
X78476190Y-69857142D01*
X78428571Y-69761904D01*
X78428571Y-69476190D01*
X78476190Y-69380952D01*
X78523809Y-69333333D01*
X78619047Y-69285714D01*
X78761904Y-69285714D01*
X78857142Y-69333333D01*
X78904761Y-69380952D01*
X78952380Y-69476190D01*
X78952380Y-69761904D01*
X78904761Y-69857142D01*
X78857142Y-69904761D01*
X78761904Y-69952380D01*
X78619047Y-69952380D01*
X79523809Y-69952380D02*
X79428571Y-69904761D01*
X79380952Y-69809523D01*
X79380952Y-68952380D01*
X80285714Y-69904761D02*
X80190476Y-69952380D01*
X80000000Y-69952380D01*
X79904761Y-69904761D01*
X79857142Y-69809523D01*
X79857142Y-69428571D01*
X79904761Y-69333333D01*
X80000000Y-69285714D01*
X80190476Y-69285714D01*
X80285714Y-69333333D01*
X80333333Y-69428571D01*
X80333333Y-69523809D01*
X79857142Y-69619047D01*
X75038095Y-65952380D02*
X75038095Y-64952380D01*
X75038095Y-65428571D02*
X75609523Y-65428571D01*
X75609523Y-65952380D02*
X75609523Y-64952380D01*
X75990476Y-64952380D02*
X76609523Y-64952380D01*
X76276190Y-65333333D01*
X76419047Y-65333333D01*
X76514285Y-65380952D01*
X76561904Y-65428571D01*
X76609523Y-65523809D01*
X76609523Y-65761904D01*
X76561904Y-65857142D01*
X76514285Y-65904761D01*
X76419047Y-65952380D01*
X76133333Y-65952380D01*
X76038095Y-65904761D01*
X75990476Y-65857142D01*
%TO.C,J3*%
X53761904Y-47957142D02*
X53714285Y-48004761D01*
X53571428Y-48052380D01*
X53476190Y-48052380D01*
X53333333Y-48004761D01*
X53238095Y-47909523D01*
X53190476Y-47814285D01*
X53142857Y-47623809D01*
X53142857Y-47480952D01*
X53190476Y-47290476D01*
X53238095Y-47195238D01*
X53333333Y-47100000D01*
X53476190Y-47052380D01*
X53571428Y-47052380D01*
X53714285Y-47100000D01*
X53761904Y-47147619D01*
X54333333Y-48052380D02*
X54238095Y-48004761D01*
X54190476Y-47957142D01*
X54142857Y-47861904D01*
X54142857Y-47576190D01*
X54190476Y-47480952D01*
X54238095Y-47433333D01*
X54333333Y-47385714D01*
X54476190Y-47385714D01*
X54571428Y-47433333D01*
X54619047Y-47480952D01*
X54666666Y-47576190D01*
X54666666Y-47861904D01*
X54619047Y-47957142D01*
X54571428Y-48004761D01*
X54476190Y-48052380D01*
X54333333Y-48052380D01*
X55095238Y-47385714D02*
X55095238Y-48052380D01*
X55095238Y-47480952D02*
X55142857Y-47433333D01*
X55238095Y-47385714D01*
X55380952Y-47385714D01*
X55476190Y-47433333D01*
X55523809Y-47528571D01*
X55523809Y-48052380D01*
X56000000Y-47385714D02*
X56000000Y-48052380D01*
X56000000Y-47480952D02*
X56047619Y-47433333D01*
X56142857Y-47385714D01*
X56285714Y-47385714D01*
X56380952Y-47433333D01*
X56428571Y-47528571D01*
X56428571Y-48052380D01*
X56666666Y-48147619D02*
X57428571Y-48147619D01*
X57857142Y-47052380D02*
X57952380Y-47052380D01*
X58047619Y-47100000D01*
X58095238Y-47147619D01*
X58142857Y-47242857D01*
X58190476Y-47433333D01*
X58190476Y-47671428D01*
X58142857Y-47861904D01*
X58095238Y-47957142D01*
X58047619Y-48004761D01*
X57952380Y-48052380D01*
X57857142Y-48052380D01*
X57761904Y-48004761D01*
X57714285Y-47957142D01*
X57666666Y-47861904D01*
X57619047Y-47671428D01*
X57619047Y-47433333D01*
X57666666Y-47242857D01*
X57714285Y-47147619D01*
X57761904Y-47100000D01*
X57857142Y-47052380D01*
X59142857Y-48052380D02*
X58571428Y-48052380D01*
X58857142Y-48052380D02*
X58857142Y-47052380D01*
X58761904Y-47195238D01*
X58666666Y-47290476D01*
X58571428Y-47338095D01*
X59476190Y-48052380D02*
X60000000Y-47385714D01*
X59476190Y-47385714D02*
X60000000Y-48052380D01*
X60571428Y-47052380D02*
X60666666Y-47052380D01*
X60761904Y-47100000D01*
X60809523Y-47147619D01*
X60857142Y-47242857D01*
X60904761Y-47433333D01*
X60904761Y-47671428D01*
X60857142Y-47861904D01*
X60809523Y-47957142D01*
X60761904Y-48004761D01*
X60666666Y-48052380D01*
X60571428Y-48052380D01*
X60476190Y-48004761D01*
X60428571Y-47957142D01*
X60380952Y-47861904D01*
X60333333Y-47671428D01*
X60333333Y-47433333D01*
X60380952Y-47242857D01*
X60428571Y-47147619D01*
X60476190Y-47100000D01*
X60571428Y-47052380D01*
X61238095Y-47052380D02*
X61857142Y-47052380D01*
X61523809Y-47433333D01*
X61666666Y-47433333D01*
X61761904Y-47480952D01*
X61809523Y-47528571D01*
X61857142Y-47623809D01*
X61857142Y-47861904D01*
X61809523Y-47957142D01*
X61761904Y-48004761D01*
X61666666Y-48052380D01*
X61380952Y-48052380D01*
X61285714Y-48004761D01*
X61238095Y-47957142D01*
X57166666Y-40752380D02*
X57166666Y-41466666D01*
X57119047Y-41609523D01*
X57023809Y-41704761D01*
X56880952Y-41752380D01*
X56785714Y-41752380D01*
X57547619Y-40752380D02*
X58166666Y-40752380D01*
X57833333Y-41133333D01*
X57976190Y-41133333D01*
X58071428Y-41180952D01*
X58119047Y-41228571D01*
X58166666Y-41323809D01*
X58166666Y-41561904D01*
X58119047Y-41657142D01*
X58071428Y-41704761D01*
X57976190Y-41752380D01*
X57690476Y-41752380D01*
X57595238Y-41704761D01*
X57547619Y-41657142D01*
%TO.C,H2*%
X70714285Y-33952380D02*
X70714285Y-32952380D01*
X71047619Y-33666666D01*
X71380952Y-32952380D01*
X71380952Y-33952380D01*
X72000000Y-33952380D02*
X71904761Y-33904761D01*
X71857142Y-33857142D01*
X71809523Y-33761904D01*
X71809523Y-33476190D01*
X71857142Y-33380952D01*
X71904761Y-33333333D01*
X72000000Y-33285714D01*
X72142857Y-33285714D01*
X72238095Y-33333333D01*
X72285714Y-33380952D01*
X72333333Y-33476190D01*
X72333333Y-33761904D01*
X72285714Y-33857142D01*
X72238095Y-33904761D01*
X72142857Y-33952380D01*
X72000000Y-33952380D01*
X73190476Y-33285714D02*
X73190476Y-33952380D01*
X72761904Y-33285714D02*
X72761904Y-33809523D01*
X72809523Y-33904761D01*
X72904761Y-33952380D01*
X73047619Y-33952380D01*
X73142857Y-33904761D01*
X73190476Y-33857142D01*
X73666666Y-33285714D02*
X73666666Y-33952380D01*
X73666666Y-33380952D02*
X73714285Y-33333333D01*
X73809523Y-33285714D01*
X73952380Y-33285714D01*
X74047619Y-33333333D01*
X74095238Y-33428571D01*
X74095238Y-33952380D01*
X74428571Y-33285714D02*
X74809523Y-33285714D01*
X74571428Y-32952380D02*
X74571428Y-33809523D01*
X74619047Y-33904761D01*
X74714285Y-33952380D01*
X74809523Y-33952380D01*
X75142857Y-33952380D02*
X75142857Y-33285714D01*
X75142857Y-32952380D02*
X75095238Y-33000000D01*
X75142857Y-33047619D01*
X75190476Y-33000000D01*
X75142857Y-32952380D01*
X75142857Y-33047619D01*
X75619047Y-33285714D02*
X75619047Y-33952380D01*
X75619047Y-33380952D02*
X75666666Y-33333333D01*
X75761904Y-33285714D01*
X75904761Y-33285714D01*
X76000000Y-33333333D01*
X76047619Y-33428571D01*
X76047619Y-33952380D01*
X76952380Y-33285714D02*
X76952380Y-34095238D01*
X76904761Y-34190476D01*
X76857142Y-34238095D01*
X76761904Y-34285714D01*
X76619047Y-34285714D01*
X76523809Y-34238095D01*
X76952380Y-33904761D02*
X76857142Y-33952380D01*
X76666666Y-33952380D01*
X76571428Y-33904761D01*
X76523809Y-33857142D01*
X76476190Y-33761904D01*
X76476190Y-33476190D01*
X76523809Y-33380952D01*
X76571428Y-33333333D01*
X76666666Y-33285714D01*
X76857142Y-33285714D01*
X76952380Y-33333333D01*
X77428571Y-33952380D02*
X77428571Y-32952380D01*
X77428571Y-33428571D02*
X78000000Y-33428571D01*
X78000000Y-33952380D02*
X78000000Y-32952380D01*
X78619047Y-33952380D02*
X78523809Y-33904761D01*
X78476190Y-33857142D01*
X78428571Y-33761904D01*
X78428571Y-33476190D01*
X78476190Y-33380952D01*
X78523809Y-33333333D01*
X78619047Y-33285714D01*
X78761904Y-33285714D01*
X78857142Y-33333333D01*
X78904761Y-33380952D01*
X78952380Y-33476190D01*
X78952380Y-33761904D01*
X78904761Y-33857142D01*
X78857142Y-33904761D01*
X78761904Y-33952380D01*
X78619047Y-33952380D01*
X79523809Y-33952380D02*
X79428571Y-33904761D01*
X79380952Y-33809523D01*
X79380952Y-32952380D01*
X80285714Y-33904761D02*
X80190476Y-33952380D01*
X80000000Y-33952380D01*
X79904761Y-33904761D01*
X79857142Y-33809523D01*
X79857142Y-33428571D01*
X79904761Y-33333333D01*
X80000000Y-33285714D01*
X80190476Y-33285714D01*
X80285714Y-33333333D01*
X80333333Y-33428571D01*
X80333333Y-33523809D01*
X79857142Y-33619047D01*
X75038095Y-29952380D02*
X75038095Y-28952380D01*
X75038095Y-29428571D02*
X75609523Y-29428571D01*
X75609523Y-29952380D02*
X75609523Y-28952380D01*
X76038095Y-29047619D02*
X76085714Y-29000000D01*
X76180952Y-28952380D01*
X76419047Y-28952380D01*
X76514285Y-29000000D01*
X76561904Y-29047619D01*
X76609523Y-29142857D01*
X76609523Y-29238095D01*
X76561904Y-29380952D01*
X75990476Y-29952380D01*
X76609523Y-29952380D01*
%TO.C,J4*%
X67261904Y-47957142D02*
X67214285Y-48004761D01*
X67071428Y-48052380D01*
X66976190Y-48052380D01*
X66833333Y-48004761D01*
X66738095Y-47909523D01*
X66690476Y-47814285D01*
X66642857Y-47623809D01*
X66642857Y-47480952D01*
X66690476Y-47290476D01*
X66738095Y-47195238D01*
X66833333Y-47100000D01*
X66976190Y-47052380D01*
X67071428Y-47052380D01*
X67214285Y-47100000D01*
X67261904Y-47147619D01*
X67833333Y-48052380D02*
X67738095Y-48004761D01*
X67690476Y-47957142D01*
X67642857Y-47861904D01*
X67642857Y-47576190D01*
X67690476Y-47480952D01*
X67738095Y-47433333D01*
X67833333Y-47385714D01*
X67976190Y-47385714D01*
X68071428Y-47433333D01*
X68119047Y-47480952D01*
X68166666Y-47576190D01*
X68166666Y-47861904D01*
X68119047Y-47957142D01*
X68071428Y-48004761D01*
X67976190Y-48052380D01*
X67833333Y-48052380D01*
X68595238Y-47385714D02*
X68595238Y-48052380D01*
X68595238Y-47480952D02*
X68642857Y-47433333D01*
X68738095Y-47385714D01*
X68880952Y-47385714D01*
X68976190Y-47433333D01*
X69023809Y-47528571D01*
X69023809Y-48052380D01*
X69500000Y-47385714D02*
X69500000Y-48052380D01*
X69500000Y-47480952D02*
X69547619Y-47433333D01*
X69642857Y-47385714D01*
X69785714Y-47385714D01*
X69880952Y-47433333D01*
X69928571Y-47528571D01*
X69928571Y-48052380D01*
X70166666Y-48147619D02*
X70928571Y-48147619D01*
X71357142Y-47052380D02*
X71452380Y-47052380D01*
X71547619Y-47100000D01*
X71595238Y-47147619D01*
X71642857Y-47242857D01*
X71690476Y-47433333D01*
X71690476Y-47671428D01*
X71642857Y-47861904D01*
X71595238Y-47957142D01*
X71547619Y-48004761D01*
X71452380Y-48052380D01*
X71357142Y-48052380D01*
X71261904Y-48004761D01*
X71214285Y-47957142D01*
X71166666Y-47861904D01*
X71119047Y-47671428D01*
X71119047Y-47433333D01*
X71166666Y-47242857D01*
X71214285Y-47147619D01*
X71261904Y-47100000D01*
X71357142Y-47052380D01*
X72642857Y-48052380D02*
X72071428Y-48052380D01*
X72357142Y-48052380D02*
X72357142Y-47052380D01*
X72261904Y-47195238D01*
X72166666Y-47290476D01*
X72071428Y-47338095D01*
X72976190Y-48052380D02*
X73500000Y-47385714D01*
X72976190Y-47385714D02*
X73500000Y-48052380D01*
X74071428Y-47052380D02*
X74166666Y-47052380D01*
X74261904Y-47100000D01*
X74309523Y-47147619D01*
X74357142Y-47242857D01*
X74404761Y-47433333D01*
X74404761Y-47671428D01*
X74357142Y-47861904D01*
X74309523Y-47957142D01*
X74261904Y-48004761D01*
X74166666Y-48052380D01*
X74071428Y-48052380D01*
X73976190Y-48004761D01*
X73928571Y-47957142D01*
X73880952Y-47861904D01*
X73833333Y-47671428D01*
X73833333Y-47433333D01*
X73880952Y-47242857D01*
X73928571Y-47147619D01*
X73976190Y-47100000D01*
X74071428Y-47052380D01*
X74738095Y-47052380D02*
X75357142Y-47052380D01*
X75023809Y-47433333D01*
X75166666Y-47433333D01*
X75261904Y-47480952D01*
X75309523Y-47528571D01*
X75357142Y-47623809D01*
X75357142Y-47861904D01*
X75309523Y-47957142D01*
X75261904Y-48004761D01*
X75166666Y-48052380D01*
X74880952Y-48052380D01*
X74785714Y-48004761D01*
X74738095Y-47957142D01*
X70666666Y-40752380D02*
X70666666Y-41466666D01*
X70619047Y-41609523D01*
X70523809Y-41704761D01*
X70380952Y-41752380D01*
X70285714Y-41752380D01*
X71571428Y-41085714D02*
X71571428Y-41752380D01*
X71333333Y-40704761D02*
X71095238Y-41419047D01*
X71714285Y-41419047D01*
%TO.C,J5*%
X61531904Y-60937142D02*
X61484285Y-60984761D01*
X61341428Y-61032380D01*
X61246190Y-61032380D01*
X61103333Y-60984761D01*
X61008095Y-60889523D01*
X60960476Y-60794285D01*
X60912857Y-60603809D01*
X60912857Y-60460952D01*
X60960476Y-60270476D01*
X61008095Y-60175238D01*
X61103333Y-60080000D01*
X61246190Y-60032380D01*
X61341428Y-60032380D01*
X61484285Y-60080000D01*
X61531904Y-60127619D01*
X62103333Y-61032380D02*
X62008095Y-60984761D01*
X61960476Y-60937142D01*
X61912857Y-60841904D01*
X61912857Y-60556190D01*
X61960476Y-60460952D01*
X62008095Y-60413333D01*
X62103333Y-60365714D01*
X62246190Y-60365714D01*
X62341428Y-60413333D01*
X62389047Y-60460952D01*
X62436666Y-60556190D01*
X62436666Y-60841904D01*
X62389047Y-60937142D01*
X62341428Y-60984761D01*
X62246190Y-61032380D01*
X62103333Y-61032380D01*
X62865238Y-60365714D02*
X62865238Y-61032380D01*
X62865238Y-60460952D02*
X62912857Y-60413333D01*
X63008095Y-60365714D01*
X63150952Y-60365714D01*
X63246190Y-60413333D01*
X63293809Y-60508571D01*
X63293809Y-61032380D01*
X63770000Y-60365714D02*
X63770000Y-61032380D01*
X63770000Y-60460952D02*
X63817619Y-60413333D01*
X63912857Y-60365714D01*
X64055714Y-60365714D01*
X64150952Y-60413333D01*
X64198571Y-60508571D01*
X64198571Y-61032380D01*
X64436666Y-61127619D02*
X65198571Y-61127619D01*
X65627142Y-60032380D02*
X65722380Y-60032380D01*
X65817619Y-60080000D01*
X65865238Y-60127619D01*
X65912857Y-60222857D01*
X65960476Y-60413333D01*
X65960476Y-60651428D01*
X65912857Y-60841904D01*
X65865238Y-60937142D01*
X65817619Y-60984761D01*
X65722380Y-61032380D01*
X65627142Y-61032380D01*
X65531904Y-60984761D01*
X65484285Y-60937142D01*
X65436666Y-60841904D01*
X65389047Y-60651428D01*
X65389047Y-60413333D01*
X65436666Y-60222857D01*
X65484285Y-60127619D01*
X65531904Y-60080000D01*
X65627142Y-60032380D01*
X66912857Y-61032380D02*
X66341428Y-61032380D01*
X66627142Y-61032380D02*
X66627142Y-60032380D01*
X66531904Y-60175238D01*
X66436666Y-60270476D01*
X66341428Y-60318095D01*
X67246190Y-61032380D02*
X67770000Y-60365714D01*
X67246190Y-60365714D02*
X67770000Y-61032380D01*
X68341428Y-60032380D02*
X68436666Y-60032380D01*
X68531904Y-60080000D01*
X68579523Y-60127619D01*
X68627142Y-60222857D01*
X68674761Y-60413333D01*
X68674761Y-60651428D01*
X68627142Y-60841904D01*
X68579523Y-60937142D01*
X68531904Y-60984761D01*
X68436666Y-61032380D01*
X68341428Y-61032380D01*
X68246190Y-60984761D01*
X68198571Y-60937142D01*
X68150952Y-60841904D01*
X68103333Y-60651428D01*
X68103333Y-60413333D01*
X68150952Y-60222857D01*
X68198571Y-60127619D01*
X68246190Y-60080000D01*
X68341428Y-60032380D01*
X69055714Y-60127619D02*
X69103333Y-60080000D01*
X69198571Y-60032380D01*
X69436666Y-60032380D01*
X69531904Y-60080000D01*
X69579523Y-60127619D01*
X69627142Y-60222857D01*
X69627142Y-60318095D01*
X69579523Y-60460952D01*
X69008095Y-61032380D01*
X69627142Y-61032380D01*
X64936666Y-53732380D02*
X64936666Y-54446666D01*
X64889047Y-54589523D01*
X64793809Y-54684761D01*
X64650952Y-54732380D01*
X64555714Y-54732380D01*
X65889047Y-53732380D02*
X65412857Y-53732380D01*
X65365238Y-54208571D01*
X65412857Y-54160952D01*
X65508095Y-54113333D01*
X65746190Y-54113333D01*
X65841428Y-54160952D01*
X65889047Y-54208571D01*
X65936666Y-54303809D01*
X65936666Y-54541904D01*
X65889047Y-54637142D01*
X65841428Y-54684761D01*
X65746190Y-54732380D01*
X65508095Y-54732380D01*
X65412857Y-54684761D01*
X65365238Y-54637142D01*
%TO.C,H4*%
X34714285Y-69952380D02*
X34714285Y-68952380D01*
X35047619Y-69666666D01*
X35380952Y-68952380D01*
X35380952Y-69952380D01*
X36000000Y-69952380D02*
X35904761Y-69904761D01*
X35857142Y-69857142D01*
X35809523Y-69761904D01*
X35809523Y-69476190D01*
X35857142Y-69380952D01*
X35904761Y-69333333D01*
X36000000Y-69285714D01*
X36142857Y-69285714D01*
X36238095Y-69333333D01*
X36285714Y-69380952D01*
X36333333Y-69476190D01*
X36333333Y-69761904D01*
X36285714Y-69857142D01*
X36238095Y-69904761D01*
X36142857Y-69952380D01*
X36000000Y-69952380D01*
X37190476Y-69285714D02*
X37190476Y-69952380D01*
X36761904Y-69285714D02*
X36761904Y-69809523D01*
X36809523Y-69904761D01*
X36904761Y-69952380D01*
X37047619Y-69952380D01*
X37142857Y-69904761D01*
X37190476Y-69857142D01*
X37666666Y-69285714D02*
X37666666Y-69952380D01*
X37666666Y-69380952D02*
X37714285Y-69333333D01*
X37809523Y-69285714D01*
X37952380Y-69285714D01*
X38047619Y-69333333D01*
X38095238Y-69428571D01*
X38095238Y-69952380D01*
X38428571Y-69285714D02*
X38809523Y-69285714D01*
X38571428Y-68952380D02*
X38571428Y-69809523D01*
X38619047Y-69904761D01*
X38714285Y-69952380D01*
X38809523Y-69952380D01*
X39142857Y-69952380D02*
X39142857Y-69285714D01*
X39142857Y-68952380D02*
X39095238Y-69000000D01*
X39142857Y-69047619D01*
X39190476Y-69000000D01*
X39142857Y-68952380D01*
X39142857Y-69047619D01*
X39619047Y-69285714D02*
X39619047Y-69952380D01*
X39619047Y-69380952D02*
X39666666Y-69333333D01*
X39761904Y-69285714D01*
X39904761Y-69285714D01*
X40000000Y-69333333D01*
X40047619Y-69428571D01*
X40047619Y-69952380D01*
X40952380Y-69285714D02*
X40952380Y-70095238D01*
X40904761Y-70190476D01*
X40857142Y-70238095D01*
X40761904Y-70285714D01*
X40619047Y-70285714D01*
X40523809Y-70238095D01*
X40952380Y-69904761D02*
X40857142Y-69952380D01*
X40666666Y-69952380D01*
X40571428Y-69904761D01*
X40523809Y-69857142D01*
X40476190Y-69761904D01*
X40476190Y-69476190D01*
X40523809Y-69380952D01*
X40571428Y-69333333D01*
X40666666Y-69285714D01*
X40857142Y-69285714D01*
X40952380Y-69333333D01*
X41428571Y-69952380D02*
X41428571Y-68952380D01*
X41428571Y-69428571D02*
X42000000Y-69428571D01*
X42000000Y-69952380D02*
X42000000Y-68952380D01*
X42619047Y-69952380D02*
X42523809Y-69904761D01*
X42476190Y-69857142D01*
X42428571Y-69761904D01*
X42428571Y-69476190D01*
X42476190Y-69380952D01*
X42523809Y-69333333D01*
X42619047Y-69285714D01*
X42761904Y-69285714D01*
X42857142Y-69333333D01*
X42904761Y-69380952D01*
X42952380Y-69476190D01*
X42952380Y-69761904D01*
X42904761Y-69857142D01*
X42857142Y-69904761D01*
X42761904Y-69952380D01*
X42619047Y-69952380D01*
X43523809Y-69952380D02*
X43428571Y-69904761D01*
X43380952Y-69809523D01*
X43380952Y-68952380D01*
X44285714Y-69904761D02*
X44190476Y-69952380D01*
X44000000Y-69952380D01*
X43904761Y-69904761D01*
X43857142Y-69809523D01*
X43857142Y-69428571D01*
X43904761Y-69333333D01*
X44000000Y-69285714D01*
X44190476Y-69285714D01*
X44285714Y-69333333D01*
X44333333Y-69428571D01*
X44333333Y-69523809D01*
X43857142Y-69619047D01*
X39038095Y-65952380D02*
X39038095Y-64952380D01*
X39038095Y-65428571D02*
X39609523Y-65428571D01*
X39609523Y-65952380D02*
X39609523Y-64952380D01*
X40514285Y-65285714D02*
X40514285Y-65952380D01*
X40276190Y-64904761D02*
X40038095Y-65619047D01*
X40657142Y-65619047D01*
%TO.C,H1*%
X34714285Y-33952380D02*
X34714285Y-32952380D01*
X35047619Y-33666666D01*
X35380952Y-32952380D01*
X35380952Y-33952380D01*
X36000000Y-33952380D02*
X35904761Y-33904761D01*
X35857142Y-33857142D01*
X35809523Y-33761904D01*
X35809523Y-33476190D01*
X35857142Y-33380952D01*
X35904761Y-33333333D01*
X36000000Y-33285714D01*
X36142857Y-33285714D01*
X36238095Y-33333333D01*
X36285714Y-33380952D01*
X36333333Y-33476190D01*
X36333333Y-33761904D01*
X36285714Y-33857142D01*
X36238095Y-33904761D01*
X36142857Y-33952380D01*
X36000000Y-33952380D01*
X37190476Y-33285714D02*
X37190476Y-33952380D01*
X36761904Y-33285714D02*
X36761904Y-33809523D01*
X36809523Y-33904761D01*
X36904761Y-33952380D01*
X37047619Y-33952380D01*
X37142857Y-33904761D01*
X37190476Y-33857142D01*
X37666666Y-33285714D02*
X37666666Y-33952380D01*
X37666666Y-33380952D02*
X37714285Y-33333333D01*
X37809523Y-33285714D01*
X37952380Y-33285714D01*
X38047619Y-33333333D01*
X38095238Y-33428571D01*
X38095238Y-33952380D01*
X38428571Y-33285714D02*
X38809523Y-33285714D01*
X38571428Y-32952380D02*
X38571428Y-33809523D01*
X38619047Y-33904761D01*
X38714285Y-33952380D01*
X38809523Y-33952380D01*
X39142857Y-33952380D02*
X39142857Y-33285714D01*
X39142857Y-32952380D02*
X39095238Y-33000000D01*
X39142857Y-33047619D01*
X39190476Y-33000000D01*
X39142857Y-32952380D01*
X39142857Y-33047619D01*
X39619047Y-33285714D02*
X39619047Y-33952380D01*
X39619047Y-33380952D02*
X39666666Y-33333333D01*
X39761904Y-33285714D01*
X39904761Y-33285714D01*
X40000000Y-33333333D01*
X40047619Y-33428571D01*
X40047619Y-33952380D01*
X40952380Y-33285714D02*
X40952380Y-34095238D01*
X40904761Y-34190476D01*
X40857142Y-34238095D01*
X40761904Y-34285714D01*
X40619047Y-34285714D01*
X40523809Y-34238095D01*
X40952380Y-33904761D02*
X40857142Y-33952380D01*
X40666666Y-33952380D01*
X40571428Y-33904761D01*
X40523809Y-33857142D01*
X40476190Y-33761904D01*
X40476190Y-33476190D01*
X40523809Y-33380952D01*
X40571428Y-33333333D01*
X40666666Y-33285714D01*
X40857142Y-33285714D01*
X40952380Y-33333333D01*
X41428571Y-33952380D02*
X41428571Y-32952380D01*
X41428571Y-33428571D02*
X42000000Y-33428571D01*
X42000000Y-33952380D02*
X42000000Y-32952380D01*
X42619047Y-33952380D02*
X42523809Y-33904761D01*
X42476190Y-33857142D01*
X42428571Y-33761904D01*
X42428571Y-33476190D01*
X42476190Y-33380952D01*
X42523809Y-33333333D01*
X42619047Y-33285714D01*
X42761904Y-33285714D01*
X42857142Y-33333333D01*
X42904761Y-33380952D01*
X42952380Y-33476190D01*
X42952380Y-33761904D01*
X42904761Y-33857142D01*
X42857142Y-33904761D01*
X42761904Y-33952380D01*
X42619047Y-33952380D01*
X43523809Y-33952380D02*
X43428571Y-33904761D01*
X43380952Y-33809523D01*
X43380952Y-32952380D01*
X44285714Y-33904761D02*
X44190476Y-33952380D01*
X44000000Y-33952380D01*
X43904761Y-33904761D01*
X43857142Y-33809523D01*
X43857142Y-33428571D01*
X43904761Y-33333333D01*
X44000000Y-33285714D01*
X44190476Y-33285714D01*
X44285714Y-33333333D01*
X44333333Y-33428571D01*
X44333333Y-33523809D01*
X43857142Y-33619047D01*
X39038095Y-29952380D02*
X39038095Y-28952380D01*
X39038095Y-29428571D02*
X39609523Y-29428571D01*
X39609523Y-29952380D02*
X39609523Y-28952380D01*
X40609523Y-29952380D02*
X40038095Y-29952380D01*
X40323809Y-29952380D02*
X40323809Y-28952380D01*
X40228571Y-29095238D01*
X40133333Y-29190476D01*
X40038095Y-29238095D01*
%TO.C,J2*%
X40261904Y-47957142D02*
X40214285Y-48004761D01*
X40071428Y-48052380D01*
X39976190Y-48052380D01*
X39833333Y-48004761D01*
X39738095Y-47909523D01*
X39690476Y-47814285D01*
X39642857Y-47623809D01*
X39642857Y-47480952D01*
X39690476Y-47290476D01*
X39738095Y-47195238D01*
X39833333Y-47100000D01*
X39976190Y-47052380D01*
X40071428Y-47052380D01*
X40214285Y-47100000D01*
X40261904Y-47147619D01*
X40833333Y-48052380D02*
X40738095Y-48004761D01*
X40690476Y-47957142D01*
X40642857Y-47861904D01*
X40642857Y-47576190D01*
X40690476Y-47480952D01*
X40738095Y-47433333D01*
X40833333Y-47385714D01*
X40976190Y-47385714D01*
X41071428Y-47433333D01*
X41119047Y-47480952D01*
X41166666Y-47576190D01*
X41166666Y-47861904D01*
X41119047Y-47957142D01*
X41071428Y-48004761D01*
X40976190Y-48052380D01*
X40833333Y-48052380D01*
X41595238Y-47385714D02*
X41595238Y-48052380D01*
X41595238Y-47480952D02*
X41642857Y-47433333D01*
X41738095Y-47385714D01*
X41880952Y-47385714D01*
X41976190Y-47433333D01*
X42023809Y-47528571D01*
X42023809Y-48052380D01*
X42500000Y-47385714D02*
X42500000Y-48052380D01*
X42500000Y-47480952D02*
X42547619Y-47433333D01*
X42642857Y-47385714D01*
X42785714Y-47385714D01*
X42880952Y-47433333D01*
X42928571Y-47528571D01*
X42928571Y-48052380D01*
X43166666Y-48147619D02*
X43928571Y-48147619D01*
X44357142Y-47052380D02*
X44452380Y-47052380D01*
X44547619Y-47100000D01*
X44595238Y-47147619D01*
X44642857Y-47242857D01*
X44690476Y-47433333D01*
X44690476Y-47671428D01*
X44642857Y-47861904D01*
X44595238Y-47957142D01*
X44547619Y-48004761D01*
X44452380Y-48052380D01*
X44357142Y-48052380D01*
X44261904Y-48004761D01*
X44214285Y-47957142D01*
X44166666Y-47861904D01*
X44119047Y-47671428D01*
X44119047Y-47433333D01*
X44166666Y-47242857D01*
X44214285Y-47147619D01*
X44261904Y-47100000D01*
X44357142Y-47052380D01*
X45642857Y-48052380D02*
X45071428Y-48052380D01*
X45357142Y-48052380D02*
X45357142Y-47052380D01*
X45261904Y-47195238D01*
X45166666Y-47290476D01*
X45071428Y-47338095D01*
X45976190Y-48052380D02*
X46500000Y-47385714D01*
X45976190Y-47385714D02*
X46500000Y-48052380D01*
X47071428Y-47052380D02*
X47166666Y-47052380D01*
X47261904Y-47100000D01*
X47309523Y-47147619D01*
X47357142Y-47242857D01*
X47404761Y-47433333D01*
X47404761Y-47671428D01*
X47357142Y-47861904D01*
X47309523Y-47957142D01*
X47261904Y-48004761D01*
X47166666Y-48052380D01*
X47071428Y-48052380D01*
X46976190Y-48004761D01*
X46928571Y-47957142D01*
X46880952Y-47861904D01*
X46833333Y-47671428D01*
X46833333Y-47433333D01*
X46880952Y-47242857D01*
X46928571Y-47147619D01*
X46976190Y-47100000D01*
X47071428Y-47052380D01*
X47738095Y-47052380D02*
X48357142Y-47052380D01*
X48023809Y-47433333D01*
X48166666Y-47433333D01*
X48261904Y-47480952D01*
X48309523Y-47528571D01*
X48357142Y-47623809D01*
X48357142Y-47861904D01*
X48309523Y-47957142D01*
X48261904Y-48004761D01*
X48166666Y-48052380D01*
X47880952Y-48052380D01*
X47785714Y-48004761D01*
X47738095Y-47957142D01*
X43666666Y-40752380D02*
X43666666Y-41466666D01*
X43619047Y-41609523D01*
X43523809Y-41704761D01*
X43380952Y-41752380D01*
X43285714Y-41752380D01*
X44095238Y-40847619D02*
X44142857Y-40800000D01*
X44238095Y-40752380D01*
X44476190Y-40752380D01*
X44571428Y-40800000D01*
X44619047Y-40847619D01*
X44666666Y-40942857D01*
X44666666Y-41038095D01*
X44619047Y-41180952D01*
X44047619Y-41752380D01*
X44666666Y-41752380D01*
%TO.C,FID2*%
X35119047Y-62428571D02*
X34785714Y-62428571D01*
X34785714Y-62952380D02*
X34785714Y-61952380D01*
X35261904Y-61952380D01*
X35642857Y-62952380D02*
X35642857Y-62285714D01*
X35642857Y-61952380D02*
X35595238Y-62000000D01*
X35642857Y-62047619D01*
X35690476Y-62000000D01*
X35642857Y-61952380D01*
X35642857Y-62047619D01*
X36547619Y-62952380D02*
X36547619Y-61952380D01*
X36547619Y-62904761D02*
X36452380Y-62952380D01*
X36261904Y-62952380D01*
X36166666Y-62904761D01*
X36119047Y-62857142D01*
X36071428Y-62761904D01*
X36071428Y-62476190D01*
X36119047Y-62380952D01*
X36166666Y-62333333D01*
X36261904Y-62285714D01*
X36452380Y-62285714D01*
X36547619Y-62333333D01*
X37452380Y-62285714D02*
X37452380Y-62952380D01*
X37023809Y-62285714D02*
X37023809Y-62809523D01*
X37071428Y-62904761D01*
X37166666Y-62952380D01*
X37309523Y-62952380D01*
X37404761Y-62904761D01*
X37452380Y-62857142D01*
X38357142Y-62904761D02*
X38261904Y-62952380D01*
X38071428Y-62952380D01*
X37976190Y-62904761D01*
X37928571Y-62857142D01*
X37880952Y-62761904D01*
X37880952Y-62476190D01*
X37928571Y-62380952D01*
X37976190Y-62333333D01*
X38071428Y-62285714D01*
X38261904Y-62285714D01*
X38357142Y-62333333D01*
X38785714Y-62952380D02*
X38785714Y-62285714D01*
X38785714Y-61952380D02*
X38738095Y-62000000D01*
X38785714Y-62047619D01*
X38833333Y-62000000D01*
X38785714Y-61952380D01*
X38785714Y-62047619D01*
X39690476Y-62952380D02*
X39690476Y-62428571D01*
X39642857Y-62333333D01*
X39547619Y-62285714D01*
X39357142Y-62285714D01*
X39261904Y-62333333D01*
X39690476Y-62904761D02*
X39595238Y-62952380D01*
X39357142Y-62952380D01*
X39261904Y-62904761D01*
X39214285Y-62809523D01*
X39214285Y-62714285D01*
X39261904Y-62619047D01*
X39357142Y-62571428D01*
X39595238Y-62571428D01*
X39690476Y-62523809D01*
X40309523Y-62952380D02*
X40214285Y-62904761D01*
X40166666Y-62809523D01*
X40166666Y-61952380D01*
D11*
X37178571Y-60478571D02*
X37078571Y-60478571D01*
X37078571Y-60635714D02*
X37078571Y-60335714D01*
X37221428Y-60335714D01*
X37335714Y-60635714D02*
X37335714Y-60335714D01*
X37478571Y-60635714D02*
X37478571Y-60335714D01*
X37550000Y-60335714D01*
X37592857Y-60350000D01*
X37621428Y-60378571D01*
X37635714Y-60407142D01*
X37650000Y-60464285D01*
X37650000Y-60507142D01*
X37635714Y-60564285D01*
X37621428Y-60592857D01*
X37592857Y-60621428D01*
X37550000Y-60635714D01*
X37478571Y-60635714D01*
X37764285Y-60364285D02*
X37778571Y-60350000D01*
X37807142Y-60335714D01*
X37878571Y-60335714D01*
X37907142Y-60350000D01*
X37921428Y-60364285D01*
X37935714Y-60392857D01*
X37935714Y-60421428D01*
X37921428Y-60464285D01*
X37750000Y-60635714D01*
X37935714Y-60635714D01*
D10*
%TO.C,J1*%
X53761904Y-33957142D02*
X53714285Y-34004761D01*
X53571428Y-34052380D01*
X53476190Y-34052380D01*
X53333333Y-34004761D01*
X53238095Y-33909523D01*
X53190476Y-33814285D01*
X53142857Y-33623809D01*
X53142857Y-33480952D01*
X53190476Y-33290476D01*
X53238095Y-33195238D01*
X53333333Y-33100000D01*
X53476190Y-33052380D01*
X53571428Y-33052380D01*
X53714285Y-33100000D01*
X53761904Y-33147619D01*
X54333333Y-34052380D02*
X54238095Y-34004761D01*
X54190476Y-33957142D01*
X54142857Y-33861904D01*
X54142857Y-33576190D01*
X54190476Y-33480952D01*
X54238095Y-33433333D01*
X54333333Y-33385714D01*
X54476190Y-33385714D01*
X54571428Y-33433333D01*
X54619047Y-33480952D01*
X54666666Y-33576190D01*
X54666666Y-33861904D01*
X54619047Y-33957142D01*
X54571428Y-34004761D01*
X54476190Y-34052380D01*
X54333333Y-34052380D01*
X55095238Y-33385714D02*
X55095238Y-34052380D01*
X55095238Y-33480952D02*
X55142857Y-33433333D01*
X55238095Y-33385714D01*
X55380952Y-33385714D01*
X55476190Y-33433333D01*
X55523809Y-33528571D01*
X55523809Y-34052380D01*
X56000000Y-33385714D02*
X56000000Y-34052380D01*
X56000000Y-33480952D02*
X56047619Y-33433333D01*
X56142857Y-33385714D01*
X56285714Y-33385714D01*
X56380952Y-33433333D01*
X56428571Y-33528571D01*
X56428571Y-34052380D01*
X56666666Y-34147619D02*
X57428571Y-34147619D01*
X57857142Y-33052380D02*
X57952380Y-33052380D01*
X58047619Y-33100000D01*
X58095238Y-33147619D01*
X58142857Y-33242857D01*
X58190476Y-33433333D01*
X58190476Y-33671428D01*
X58142857Y-33861904D01*
X58095238Y-33957142D01*
X58047619Y-34004761D01*
X57952380Y-34052380D01*
X57857142Y-34052380D01*
X57761904Y-34004761D01*
X57714285Y-33957142D01*
X57666666Y-33861904D01*
X57619047Y-33671428D01*
X57619047Y-33433333D01*
X57666666Y-33242857D01*
X57714285Y-33147619D01*
X57761904Y-33100000D01*
X57857142Y-33052380D01*
X59142857Y-34052380D02*
X58571428Y-34052380D01*
X58857142Y-34052380D02*
X58857142Y-33052380D01*
X58761904Y-33195238D01*
X58666666Y-33290476D01*
X58571428Y-33338095D01*
X59476190Y-34052380D02*
X60000000Y-33385714D01*
X59476190Y-33385714D02*
X60000000Y-34052380D01*
X60904761Y-34052380D02*
X60333333Y-34052380D01*
X60619047Y-34052380D02*
X60619047Y-33052380D01*
X60523809Y-33195238D01*
X60428571Y-33290476D01*
X60333333Y-33338095D01*
X61523809Y-33052380D02*
X61619047Y-33052380D01*
X61714285Y-33100000D01*
X61761904Y-33147619D01*
X61809523Y-33242857D01*
X61857142Y-33433333D01*
X61857142Y-33671428D01*
X61809523Y-33861904D01*
X61761904Y-33957142D01*
X61714285Y-34004761D01*
X61619047Y-34052380D01*
X61523809Y-34052380D01*
X61428571Y-34004761D01*
X61380952Y-33957142D01*
X61333333Y-33861904D01*
X61285714Y-33671428D01*
X61285714Y-33433333D01*
X61333333Y-33242857D01*
X61380952Y-33147619D01*
X61428571Y-33100000D01*
X61523809Y-33052380D01*
X57166666Y-26752380D02*
X57166666Y-27466666D01*
X57119047Y-27609523D01*
X57023809Y-27704761D01*
X56880952Y-27752380D01*
X56785714Y-27752380D01*
X58166666Y-27752380D02*
X57595238Y-27752380D01*
X57880952Y-27752380D02*
X57880952Y-26752380D01*
X57785714Y-26895238D01*
X57690476Y-26990476D01*
X57595238Y-27038095D01*
D12*
%TO.C,J6*%
X52810000Y-53580000D02*
X47730000Y-53580000D01*
X48437107Y-56500000D02*
X47730000Y-57000000D01*
X52810000Y-59380000D02*
X52810000Y-53580000D01*
X47730000Y-56000000D02*
X48437107Y-56500000D01*
X47730000Y-53580000D02*
X47730000Y-59380000D01*
X47730000Y-59380000D02*
X52810000Y-59380000D01*
%TO.C,FID1*%
X78250000Y-34500000D02*
G75*
G03*
X78250000Y-34500000I-750000J0D01*
G01*
%TO.C,J3*%
X53690000Y-43020000D02*
X54397107Y-43520000D01*
X53690000Y-46400000D02*
X61310000Y-46400000D01*
X61310000Y-40600000D02*
X53690000Y-40600000D01*
X53690000Y-40600000D02*
X53690000Y-46400000D01*
X54397107Y-43520000D02*
X53690000Y-44020000D01*
X61310000Y-46400000D02*
X61310000Y-40600000D01*
%TO.C,J4*%
X67190000Y-46400000D02*
X74810000Y-46400000D01*
X74810000Y-40600000D02*
X67190000Y-40600000D01*
X67190000Y-43020000D02*
X67897107Y-43520000D01*
X67190000Y-40600000D02*
X67190000Y-46400000D01*
X67897107Y-43520000D02*
X67190000Y-44020000D01*
X74810000Y-46400000D02*
X74810000Y-40600000D01*
%TO.C,J5*%
X62730000Y-53580000D02*
X62730000Y-59380000D01*
X67810000Y-59380000D02*
X67810000Y-53580000D01*
X62730000Y-56000000D02*
X63437107Y-56500000D01*
X63437107Y-56500000D02*
X62730000Y-57000000D01*
X62730000Y-59380000D02*
X67810000Y-59380000D01*
X67810000Y-53580000D02*
X62730000Y-53580000D01*
%TO.C,J2*%
X40190000Y-46400000D02*
X47810000Y-46400000D01*
X47810000Y-46400000D02*
X47810000Y-40600000D01*
X47810000Y-40600000D02*
X40190000Y-40600000D01*
X40190000Y-43020000D02*
X40897107Y-43520000D01*
X40190000Y-40600000D02*
X40190000Y-46400000D01*
X40897107Y-43520000D02*
X40190000Y-44020000D01*
%TO.C,FID2*%
X38250000Y-60500000D02*
G75*
G03*
X38250000Y-60500000I-750000J0D01*
G01*
%TO.C,J1*%
X44800000Y-32400000D02*
X70200000Y-32400000D01*
X45507107Y-29520000D02*
X44800000Y-30020000D01*
X70200000Y-26600000D02*
X44800000Y-26600000D01*
X44800000Y-29020000D02*
X45507107Y-29520000D01*
X70200000Y-32400000D02*
X70200000Y-26600000D01*
X44800000Y-26600000D02*
X44800000Y-32400000D01*
%TD*%
M02*
