%TF.GenerationSoftware,KiCad,Pcbnew,(6.0.0-rc1-76-g1e8284bc1a)*%
%TF.CreationDate,2022-09-28T09:07:56+05:30*%
%TF.ProjectId,extension_Board,65787465-6e73-4696-9f6e-5f426f617264,rev?*%
%TF.SameCoordinates,Original*%
%TF.FileFunction,Legend,Top*%
%TF.FilePolarity,Positive*%
%FSLAX46Y46*%
G04 Gerber Fmt 4.6, Leading zero omitted, Abs format (unit mm)*
G04 Created by KiCad (PCBNEW (6.0.0-rc1-76-g1e8284bc1a)) date 2022-09-28 09:07:56*
%MOMM*%
%LPD*%
G01*
G04 APERTURE LIST*
%ADD10C,0.300000*%
%ADD11C,0.150000*%
%ADD12C,0.120000*%
G04 APERTURE END LIST*
D10*
X53321428Y-51285714D02*
X53250000Y-51214285D01*
X53178571Y-51071428D01*
X53178571Y-50714285D01*
X53250000Y-50571428D01*
X53321428Y-50500000D01*
X53464285Y-50428571D01*
X53607142Y-50428571D01*
X53821428Y-50500000D01*
X54678571Y-51357142D01*
X54678571Y-50428571D01*
X53678571Y-49142857D02*
X54678571Y-49142857D01*
X53107142Y-49500000D02*
X54178571Y-49857142D01*
X54178571Y-48928571D01*
X53178571Y-48571428D02*
X54678571Y-48071428D01*
X53178571Y-47571428D01*
X67178571Y-64642857D02*
X65678571Y-64642857D01*
X66750000Y-64142857D01*
X65678571Y-63642857D01*
X67178571Y-63642857D01*
X65821428Y-63000000D02*
X65750000Y-62928571D01*
X65678571Y-62785714D01*
X65678571Y-62428571D01*
X65750000Y-62285714D01*
X65821428Y-62214285D01*
X65964285Y-62142857D01*
X66107142Y-62142857D01*
X66321428Y-62214285D01*
X67178571Y-63071428D01*
X67178571Y-62142857D01*
X66607142Y-61500000D02*
X66607142Y-60357142D01*
X67178571Y-38142857D02*
X65678571Y-38142857D01*
X66750000Y-37642857D01*
X65678571Y-37142857D01*
X67178571Y-37142857D01*
X65821428Y-36500000D02*
X65750000Y-36428571D01*
X65678571Y-36285714D01*
X65678571Y-35928571D01*
X65750000Y-35785714D01*
X65821428Y-35714285D01*
X65964285Y-35642857D01*
X66107142Y-35642857D01*
X66321428Y-35714285D01*
X67178571Y-36571428D01*
X67178571Y-35642857D01*
X66607142Y-35000000D02*
X66607142Y-33857142D01*
X67321428Y-51285714D02*
X67250000Y-51214285D01*
X67178571Y-51071428D01*
X67178571Y-50714285D01*
X67250000Y-50571428D01*
X67321428Y-50500000D01*
X67464285Y-50428571D01*
X67607142Y-50428571D01*
X67821428Y-50500000D01*
X68678571Y-51357142D01*
X68678571Y-50428571D01*
X67678571Y-49142857D02*
X68678571Y-49142857D01*
X67107142Y-49500000D02*
X68178571Y-49857142D01*
X68178571Y-48928571D01*
X67178571Y-48571428D02*
X68678571Y-48071428D01*
X67178571Y-47571428D01*
X52107142Y-38607142D02*
X52178571Y-38392857D01*
X52178571Y-38035714D01*
X52107142Y-37892857D01*
X52035714Y-37821428D01*
X51892857Y-37750000D01*
X51750000Y-37750000D01*
X51607142Y-37821428D01*
X51535714Y-37892857D01*
X51464285Y-38035714D01*
X51392857Y-38321428D01*
X51321428Y-38464285D01*
X51250000Y-38535714D01*
X51107142Y-38607142D01*
X50964285Y-38607142D01*
X50821428Y-38535714D01*
X50750000Y-38464285D01*
X50678571Y-38321428D01*
X50678571Y-37964285D01*
X50750000Y-37750000D01*
X51392857Y-37107142D02*
X51392857Y-36607142D01*
X52178571Y-36392857D02*
X52178571Y-37107142D01*
X50678571Y-37107142D01*
X50678571Y-36392857D01*
X52178571Y-35750000D02*
X50678571Y-35750000D01*
X52178571Y-34892857D01*
X50678571Y-34892857D01*
X52178571Y-33392857D02*
X52178571Y-34250000D01*
X52178571Y-33821428D02*
X50678571Y-33821428D01*
X50892857Y-33964285D01*
X51035714Y-34107142D01*
X51107142Y-34250000D01*
X68750000Y-37142857D02*
X68678571Y-37285714D01*
X68678571Y-37500000D01*
X68750000Y-37714285D01*
X68892857Y-37857142D01*
X69035714Y-37928571D01*
X69321428Y-38000000D01*
X69535714Y-38000000D01*
X69821428Y-37928571D01*
X69964285Y-37857142D01*
X70107142Y-37714285D01*
X70178571Y-37500000D01*
X70178571Y-37357142D01*
X70107142Y-37142857D01*
X70035714Y-37071428D01*
X69535714Y-37071428D01*
X69535714Y-37357142D01*
X70178571Y-36428571D02*
X68678571Y-36428571D01*
X70178571Y-35571428D01*
X68678571Y-35571428D01*
X70178571Y-34857142D02*
X68678571Y-34857142D01*
X68678571Y-34500000D01*
X68750000Y-34285714D01*
X68892857Y-34142857D01*
X69035714Y-34071428D01*
X69321428Y-34000000D01*
X69535714Y-34000000D01*
X69821428Y-34071428D01*
X69964285Y-34142857D01*
X70107142Y-34285714D01*
X70178571Y-34500000D01*
X70178571Y-34857142D01*
X44821428Y-37785714D02*
X44750000Y-37714285D01*
X44678571Y-37571428D01*
X44678571Y-37214285D01*
X44750000Y-37071428D01*
X44821428Y-37000000D01*
X44964285Y-36928571D01*
X45107142Y-36928571D01*
X45321428Y-37000000D01*
X46178571Y-37857142D01*
X46178571Y-36928571D01*
X45178571Y-35642857D02*
X46178571Y-35642857D01*
X44607142Y-36000000D02*
X45678571Y-36357142D01*
X45678571Y-35428571D01*
X44678571Y-35071428D02*
X46178571Y-34571428D01*
X44678571Y-34071428D01*
X52178571Y-64642857D02*
X50678571Y-64642857D01*
X51750000Y-64142857D01*
X50678571Y-63642857D01*
X52178571Y-63642857D01*
X52178571Y-62142857D02*
X52178571Y-63000000D01*
X52178571Y-62571428D02*
X50678571Y-62571428D01*
X50892857Y-62714285D01*
X51035714Y-62857142D01*
X51107142Y-63000000D01*
X51607142Y-61500000D02*
X51607142Y-60357142D01*
X64678571Y-38142857D02*
X63178571Y-38142857D01*
X64250000Y-37642857D01*
X63178571Y-37142857D01*
X64678571Y-37142857D01*
X63321428Y-36500000D02*
X63250000Y-36428571D01*
X63178571Y-36285714D01*
X63178571Y-35928571D01*
X63250000Y-35785714D01*
X63321428Y-35714285D01*
X63464285Y-35642857D01*
X63607142Y-35642857D01*
X63821428Y-35714285D01*
X64678571Y-36571428D01*
X64678571Y-35642857D01*
X64107142Y-35000000D02*
X64107142Y-33857142D01*
X64678571Y-34428571D02*
X63535714Y-34428571D01*
X59750000Y-50642857D02*
X59678571Y-50785714D01*
X59678571Y-51000000D01*
X59750000Y-51214285D01*
X59892857Y-51357142D01*
X60035714Y-51428571D01*
X60321428Y-51500000D01*
X60535714Y-51500000D01*
X60821428Y-51428571D01*
X60964285Y-51357142D01*
X61107142Y-51214285D01*
X61178571Y-51000000D01*
X61178571Y-50857142D01*
X61107142Y-50642857D01*
X61035714Y-50571428D01*
X60535714Y-50571428D01*
X60535714Y-50857142D01*
X61178571Y-49928571D02*
X59678571Y-49928571D01*
X61178571Y-49071428D01*
X59678571Y-49071428D01*
X61178571Y-48357142D02*
X59678571Y-48357142D01*
X59678571Y-48000000D01*
X59750000Y-47785714D01*
X59892857Y-47642857D01*
X60035714Y-47571428D01*
X60321428Y-47500000D01*
X60535714Y-47500000D01*
X60821428Y-47571428D01*
X60964285Y-47642857D01*
X61107142Y-47785714D01*
X61178571Y-48000000D01*
X61178571Y-48357142D01*
X39821428Y-51285714D02*
X39750000Y-51214285D01*
X39678571Y-51071428D01*
X39678571Y-50714285D01*
X39750000Y-50571428D01*
X39821428Y-50500000D01*
X39964285Y-50428571D01*
X40107142Y-50428571D01*
X40321428Y-50500000D01*
X41178571Y-51357142D01*
X41178571Y-50428571D01*
X40178571Y-49142857D02*
X41178571Y-49142857D01*
X39607142Y-49500000D02*
X40678571Y-49857142D01*
X40678571Y-48928571D01*
X39678571Y-48571428D02*
X41178571Y-48071428D01*
X39678571Y-47571428D01*
X64178571Y-64642857D02*
X62678571Y-64642857D01*
X63750000Y-64142857D01*
X62678571Y-63642857D01*
X64178571Y-63642857D01*
X62821428Y-63000000D02*
X62750000Y-62928571D01*
X62678571Y-62785714D01*
X62678571Y-62428571D01*
X62750000Y-62285714D01*
X62821428Y-62214285D01*
X62964285Y-62142857D01*
X63107142Y-62142857D01*
X63321428Y-62214285D01*
X64178571Y-63071428D01*
X64178571Y-62142857D01*
X63607142Y-61500000D02*
X63607142Y-60357142D01*
X64178571Y-60928571D02*
X63035714Y-60928571D01*
X57107142Y-38607142D02*
X57178571Y-38392857D01*
X57178571Y-38035714D01*
X57107142Y-37892857D01*
X57035714Y-37821428D01*
X56892857Y-37750000D01*
X56750000Y-37750000D01*
X56607142Y-37821428D01*
X56535714Y-37892857D01*
X56464285Y-38035714D01*
X56392857Y-38321428D01*
X56321428Y-38464285D01*
X56250000Y-38535714D01*
X56107142Y-38607142D01*
X55964285Y-38607142D01*
X55821428Y-38535714D01*
X55750000Y-38464285D01*
X55678571Y-38321428D01*
X55678571Y-37964285D01*
X55750000Y-37750000D01*
X56392857Y-37107142D02*
X56392857Y-36607142D01*
X57178571Y-36392857D02*
X57178571Y-37107142D01*
X55678571Y-37107142D01*
X55678571Y-36392857D01*
X57178571Y-35750000D02*
X55678571Y-35750000D01*
X57178571Y-34892857D01*
X55678571Y-34892857D01*
X55678571Y-34321428D02*
X55678571Y-33392857D01*
X56250000Y-33892857D01*
X56250000Y-33678571D01*
X56321428Y-33535714D01*
X56392857Y-33464285D01*
X56535714Y-33392857D01*
X56892857Y-33392857D01*
X57035714Y-33464285D01*
X57107142Y-33535714D01*
X57178571Y-33678571D01*
X57178571Y-34107142D01*
X57107142Y-34250000D01*
X57035714Y-34321428D01*
X71607142Y-52607142D02*
X71678571Y-52392857D01*
X71678571Y-52035714D01*
X71607142Y-51892857D01*
X71535714Y-51821428D01*
X71392857Y-51750000D01*
X71250000Y-51750000D01*
X71107142Y-51821428D01*
X71035714Y-51892857D01*
X70964285Y-52035714D01*
X70892857Y-52321428D01*
X70821428Y-52464285D01*
X70750000Y-52535714D01*
X70607142Y-52607142D01*
X70464285Y-52607142D01*
X70321428Y-52535714D01*
X70250000Y-52464285D01*
X70178571Y-52321428D01*
X70178571Y-51964285D01*
X70250000Y-51750000D01*
X70892857Y-51107142D02*
X70892857Y-50607142D01*
X71678571Y-50392857D02*
X71678571Y-51107142D01*
X70178571Y-51107142D01*
X70178571Y-50392857D01*
X71678571Y-49750000D02*
X70178571Y-49750000D01*
X71678571Y-48892857D01*
X70178571Y-48892857D01*
X70178571Y-48321428D02*
X70178571Y-47392857D01*
X70750000Y-47892857D01*
X70750000Y-47678571D01*
X70821428Y-47535714D01*
X70892857Y-47464285D01*
X71035714Y-47392857D01*
X71392857Y-47392857D01*
X71535714Y-47464285D01*
X71607142Y-47535714D01*
X71678571Y-47678571D01*
X71678571Y-48107142D01*
X71607142Y-48250000D01*
X71535714Y-48321428D01*
X62178571Y-38142857D02*
X60678571Y-38142857D01*
X61750000Y-37642857D01*
X60678571Y-37142857D01*
X62178571Y-37142857D01*
X62178571Y-35642857D02*
X62178571Y-36500000D01*
X62178571Y-36071428D02*
X60678571Y-36071428D01*
X60892857Y-36214285D01*
X61035714Y-36357142D01*
X61107142Y-36500000D01*
X61607142Y-35000000D02*
X61607142Y-33857142D01*
X59678571Y-38142857D02*
X58178571Y-38142857D01*
X59250000Y-37642857D01*
X58178571Y-37142857D01*
X59678571Y-37142857D01*
X59678571Y-35642857D02*
X59678571Y-36500000D01*
X59678571Y-36071428D02*
X58178571Y-36071428D01*
X58392857Y-36214285D01*
X58535714Y-36357142D01*
X58607142Y-36500000D01*
X59107142Y-35000000D02*
X59107142Y-33857142D01*
X59678571Y-34428571D02*
X58535714Y-34428571D01*
X57607142Y-52607142D02*
X57678571Y-52392857D01*
X57678571Y-52035714D01*
X57607142Y-51892857D01*
X57535714Y-51821428D01*
X57392857Y-51750000D01*
X57250000Y-51750000D01*
X57107142Y-51821428D01*
X57035714Y-51892857D01*
X56964285Y-52035714D01*
X56892857Y-52321428D01*
X56821428Y-52464285D01*
X56750000Y-52535714D01*
X56607142Y-52607142D01*
X56464285Y-52607142D01*
X56321428Y-52535714D01*
X56250000Y-52464285D01*
X56178571Y-52321428D01*
X56178571Y-51964285D01*
X56250000Y-51750000D01*
X56892857Y-51107142D02*
X56892857Y-50607142D01*
X57678571Y-50392857D02*
X57678571Y-51107142D01*
X56178571Y-51107142D01*
X56178571Y-50392857D01*
X57678571Y-49750000D02*
X56178571Y-49750000D01*
X57678571Y-48892857D01*
X56178571Y-48892857D01*
X56321428Y-48250000D02*
X56250000Y-48178571D01*
X56178571Y-48035714D01*
X56178571Y-47678571D01*
X56250000Y-47535714D01*
X56321428Y-47464285D01*
X56464285Y-47392857D01*
X56607142Y-47392857D01*
X56821428Y-47464285D01*
X57678571Y-48321428D01*
X57678571Y-47392857D01*
X44107142Y-52607142D02*
X44178571Y-52392857D01*
X44178571Y-52035714D01*
X44107142Y-51892857D01*
X44035714Y-51821428D01*
X43892857Y-51750000D01*
X43750000Y-51750000D01*
X43607142Y-51821428D01*
X43535714Y-51892857D01*
X43464285Y-52035714D01*
X43392857Y-52321428D01*
X43321428Y-52464285D01*
X43250000Y-52535714D01*
X43107142Y-52607142D01*
X42964285Y-52607142D01*
X42821428Y-52535714D01*
X42750000Y-52464285D01*
X42678571Y-52321428D01*
X42678571Y-51964285D01*
X42750000Y-51750000D01*
X43392857Y-51107142D02*
X43392857Y-50607142D01*
X44178571Y-50392857D02*
X44178571Y-51107142D01*
X42678571Y-51107142D01*
X42678571Y-50392857D01*
X44178571Y-49750000D02*
X42678571Y-49750000D01*
X44178571Y-48892857D01*
X42678571Y-48892857D01*
X44178571Y-47392857D02*
X44178571Y-48250000D01*
X44178571Y-47821428D02*
X42678571Y-47821428D01*
X42892857Y-47964285D01*
X43035714Y-48107142D01*
X43107142Y-48250000D01*
X73750000Y-50642857D02*
X73678571Y-50785714D01*
X73678571Y-51000000D01*
X73750000Y-51214285D01*
X73892857Y-51357142D01*
X74035714Y-51428571D01*
X74321428Y-51500000D01*
X74535714Y-51500000D01*
X74821428Y-51428571D01*
X74964285Y-51357142D01*
X75107142Y-51214285D01*
X75178571Y-51000000D01*
X75178571Y-50857142D01*
X75107142Y-50642857D01*
X75035714Y-50571428D01*
X74535714Y-50571428D01*
X74535714Y-50857142D01*
X75178571Y-49928571D02*
X73678571Y-49928571D01*
X75178571Y-49071428D01*
X73678571Y-49071428D01*
X75178571Y-48357142D02*
X73678571Y-48357142D01*
X73678571Y-48000000D01*
X73750000Y-47785714D01*
X73892857Y-47642857D01*
X74035714Y-47571428D01*
X74321428Y-47500000D01*
X74535714Y-47500000D01*
X74821428Y-47571428D01*
X74964285Y-47642857D01*
X75107142Y-47785714D01*
X75178571Y-48000000D01*
X75178571Y-48357142D01*
X54607142Y-38607142D02*
X54678571Y-38392857D01*
X54678571Y-38035714D01*
X54607142Y-37892857D01*
X54535714Y-37821428D01*
X54392857Y-37750000D01*
X54250000Y-37750000D01*
X54107142Y-37821428D01*
X54035714Y-37892857D01*
X53964285Y-38035714D01*
X53892857Y-38321428D01*
X53821428Y-38464285D01*
X53750000Y-38535714D01*
X53607142Y-38607142D01*
X53464285Y-38607142D01*
X53321428Y-38535714D01*
X53250000Y-38464285D01*
X53178571Y-38321428D01*
X53178571Y-37964285D01*
X53250000Y-37750000D01*
X53892857Y-37107142D02*
X53892857Y-36607142D01*
X54678571Y-36392857D02*
X54678571Y-37107142D01*
X53178571Y-37107142D01*
X53178571Y-36392857D01*
X54678571Y-35750000D02*
X53178571Y-35750000D01*
X54678571Y-34892857D01*
X53178571Y-34892857D01*
X53321428Y-34250000D02*
X53250000Y-34178571D01*
X53178571Y-34035714D01*
X53178571Y-33678571D01*
X53250000Y-33535714D01*
X53321428Y-33464285D01*
X53464285Y-33392857D01*
X53607142Y-33392857D01*
X53821428Y-33464285D01*
X54678571Y-34321428D01*
X54678571Y-33392857D01*
X46250000Y-50642857D02*
X46178571Y-50785714D01*
X46178571Y-51000000D01*
X46250000Y-51214285D01*
X46392857Y-51357142D01*
X46535714Y-51428571D01*
X46821428Y-51500000D01*
X47035714Y-51500000D01*
X47321428Y-51428571D01*
X47464285Y-51357142D01*
X47607142Y-51214285D01*
X47678571Y-51000000D01*
X47678571Y-50857142D01*
X47607142Y-50642857D01*
X47535714Y-50571428D01*
X47035714Y-50571428D01*
X47035714Y-50857142D01*
X47678571Y-49928571D02*
X46178571Y-49928571D01*
X47678571Y-49071428D01*
X46178571Y-49071428D01*
X47678571Y-48357142D02*
X46178571Y-48357142D01*
X46178571Y-48000000D01*
X46250000Y-47785714D01*
X46392857Y-47642857D01*
X46535714Y-47571428D01*
X46821428Y-47500000D01*
X47035714Y-47500000D01*
X47321428Y-47571428D01*
X47464285Y-47642857D01*
X47607142Y-47785714D01*
X47678571Y-48000000D01*
X47678571Y-48357142D01*
X47750000Y-37142857D02*
X47678571Y-37285714D01*
X47678571Y-37500000D01*
X47750000Y-37714285D01*
X47892857Y-37857142D01*
X48035714Y-37928571D01*
X48321428Y-38000000D01*
X48535714Y-38000000D01*
X48821428Y-37928571D01*
X48964285Y-37857142D01*
X49107142Y-37714285D01*
X49178571Y-37500000D01*
X49178571Y-37357142D01*
X49107142Y-37142857D01*
X49035714Y-37071428D01*
X48535714Y-37071428D01*
X48535714Y-37357142D01*
X49178571Y-36428571D02*
X47678571Y-36428571D01*
X49178571Y-35571428D01*
X47678571Y-35571428D01*
X49178571Y-34857142D02*
X47678571Y-34857142D01*
X47678571Y-34500000D01*
X47750000Y-34285714D01*
X47892857Y-34142857D01*
X48035714Y-34071428D01*
X48321428Y-34000000D01*
X48535714Y-34000000D01*
X48821428Y-34071428D01*
X48964285Y-34142857D01*
X49107142Y-34285714D01*
X49178571Y-34500000D01*
X49178571Y-34857142D01*
X49178571Y-64642857D02*
X47678571Y-64642857D01*
X48750000Y-64142857D01*
X47678571Y-63642857D01*
X49178571Y-63642857D01*
X49178571Y-62142857D02*
X49178571Y-63000000D01*
X49178571Y-62571428D02*
X47678571Y-62571428D01*
X47892857Y-62714285D01*
X48035714Y-62857142D01*
X48107142Y-63000000D01*
X48607142Y-61500000D02*
X48607142Y-60357142D01*
X49178571Y-60928571D02*
X48035714Y-60928571D01*
D11*
%TO.C,J6*%
X54166666Y-58952380D02*
X54166666Y-59666666D01*
X54119047Y-59809523D01*
X54023809Y-59904761D01*
X53880952Y-59952380D01*
X53785714Y-59952380D01*
X55071428Y-58952380D02*
X54880952Y-58952380D01*
X54785714Y-59000000D01*
X54738095Y-59047619D01*
X54642857Y-59190476D01*
X54595238Y-59380952D01*
X54595238Y-59761904D01*
X54642857Y-59857142D01*
X54690476Y-59904761D01*
X54785714Y-59952380D01*
X54976190Y-59952380D01*
X55071428Y-59904761D01*
X55119047Y-59857142D01*
X55166666Y-59761904D01*
X55166666Y-59523809D01*
X55119047Y-59428571D01*
X55071428Y-59380952D01*
X54976190Y-59333333D01*
X54785714Y-59333333D01*
X54690476Y-59380952D01*
X54642857Y-59428571D01*
X54595238Y-59523809D01*
%TO.C,H3*%
X70238095Y-68452380D02*
X70238095Y-67452380D01*
X70238095Y-67928571D02*
X70809523Y-67928571D01*
X70809523Y-68452380D02*
X70809523Y-67452380D01*
X71190476Y-67452380D02*
X71809523Y-67452380D01*
X71476190Y-67833333D01*
X71619047Y-67833333D01*
X71714285Y-67880952D01*
X71761904Y-67928571D01*
X71809523Y-68023809D01*
X71809523Y-68261904D01*
X71761904Y-68357142D01*
X71714285Y-68404761D01*
X71619047Y-68452380D01*
X71333333Y-68452380D01*
X71238095Y-68404761D01*
X71190476Y-68357142D01*
%TO.C,J3*%
X62666666Y-45952380D02*
X62666666Y-46666666D01*
X62619047Y-46809523D01*
X62523809Y-46904761D01*
X62380952Y-46952380D01*
X62285714Y-46952380D01*
X63047619Y-45952380D02*
X63666666Y-45952380D01*
X63333333Y-46333333D01*
X63476190Y-46333333D01*
X63571428Y-46380952D01*
X63619047Y-46428571D01*
X63666666Y-46523809D01*
X63666666Y-46761904D01*
X63619047Y-46857142D01*
X63571428Y-46904761D01*
X63476190Y-46952380D01*
X63190476Y-46952380D01*
X63095238Y-46904761D01*
X63047619Y-46857142D01*
%TO.C,H2*%
X74738095Y-34952380D02*
X74738095Y-33952380D01*
X74738095Y-34428571D02*
X75309523Y-34428571D01*
X75309523Y-34952380D02*
X75309523Y-33952380D01*
X75738095Y-34047619D02*
X75785714Y-34000000D01*
X75880952Y-33952380D01*
X76119047Y-33952380D01*
X76214285Y-34000000D01*
X76261904Y-34047619D01*
X76309523Y-34142857D01*
X76309523Y-34238095D01*
X76261904Y-34380952D01*
X75690476Y-34952380D01*
X76309523Y-34952380D01*
%TO.C,J4*%
X76166666Y-45952380D02*
X76166666Y-46666666D01*
X76119047Y-46809523D01*
X76023809Y-46904761D01*
X75880952Y-46952380D01*
X75785714Y-46952380D01*
X77071428Y-46285714D02*
X77071428Y-46952380D01*
X76833333Y-45904761D02*
X76595238Y-46619047D01*
X77214285Y-46619047D01*
%TO.C,J5*%
X69166666Y-58952380D02*
X69166666Y-59666666D01*
X69119047Y-59809523D01*
X69023809Y-59904761D01*
X68880952Y-59952380D01*
X68785714Y-59952380D01*
X70119047Y-58952380D02*
X69642857Y-58952380D01*
X69595238Y-59428571D01*
X69642857Y-59380952D01*
X69738095Y-59333333D01*
X69976190Y-59333333D01*
X70071428Y-59380952D01*
X70119047Y-59428571D01*
X70166666Y-59523809D01*
X70166666Y-59761904D01*
X70119047Y-59857142D01*
X70071428Y-59904761D01*
X69976190Y-59952380D01*
X69738095Y-59952380D01*
X69642857Y-59904761D01*
X69595238Y-59857142D01*
%TO.C,H4*%
X43238095Y-68452380D02*
X43238095Y-67452380D01*
X43238095Y-67928571D02*
X43809523Y-67928571D01*
X43809523Y-68452380D02*
X43809523Y-67452380D01*
X44714285Y-67785714D02*
X44714285Y-68452380D01*
X44476190Y-67404761D02*
X44238095Y-68119047D01*
X44857142Y-68119047D01*
%TO.C,H1*%
X36238095Y-33952380D02*
X36238095Y-32952380D01*
X36238095Y-33428571D02*
X36809523Y-33428571D01*
X36809523Y-33952380D02*
X36809523Y-32952380D01*
X37809523Y-33952380D02*
X37238095Y-33952380D01*
X37523809Y-33952380D02*
X37523809Y-32952380D01*
X37428571Y-33095238D01*
X37333333Y-33190476D01*
X37238095Y-33238095D01*
%TO.C,J2*%
X49166666Y-45952380D02*
X49166666Y-46666666D01*
X49119047Y-46809523D01*
X49023809Y-46904761D01*
X48880952Y-46952380D01*
X48785714Y-46952380D01*
X49595238Y-46047619D02*
X49642857Y-46000000D01*
X49738095Y-45952380D01*
X49976190Y-45952380D01*
X50071428Y-46000000D01*
X50119047Y-46047619D01*
X50166666Y-46142857D01*
X50166666Y-46238095D01*
X50119047Y-46380952D01*
X49547619Y-46952380D01*
X50166666Y-46952380D01*
%TO.C,J1*%
X71666666Y-31952380D02*
X71666666Y-32666666D01*
X71619047Y-32809523D01*
X71523809Y-32904761D01*
X71380952Y-32952380D01*
X71285714Y-32952380D01*
X72666666Y-32952380D02*
X72095238Y-32952380D01*
X72380952Y-32952380D02*
X72380952Y-31952380D01*
X72285714Y-32095238D01*
X72190476Y-32190476D01*
X72095238Y-32238095D01*
D12*
%TO.C,J6*%
X52920000Y-59490000D02*
X52920000Y-53470000D01*
X49000000Y-58490000D02*
X51540000Y-58490000D01*
X49250000Y-57960000D02*
X51290000Y-57960000D01*
X52920000Y-53470000D02*
X47620000Y-53470000D01*
X49000000Y-58490000D02*
X49250000Y-57960000D01*
X51290000Y-57960000D02*
X51540000Y-58490000D01*
X47620000Y-53470000D02*
X47620000Y-59490000D01*
X49250000Y-59490000D02*
X49250000Y-58490000D01*
X47620000Y-59490000D02*
X52920000Y-59490000D01*
X49800000Y-54070000D02*
X49800000Y-53470000D01*
X52340000Y-54070000D02*
X52340000Y-53470000D01*
X50740000Y-53470000D02*
X50740000Y-54070000D01*
X47330000Y-54500000D02*
X47330000Y-58500000D01*
X48200000Y-54070000D02*
X49800000Y-54070000D01*
X51540000Y-58490000D02*
X51540000Y-59490000D01*
X50740000Y-54070000D02*
X52340000Y-54070000D01*
X49000000Y-59490000D02*
X49000000Y-58490000D01*
X51290000Y-59490000D02*
X51290000Y-58490000D01*
X48200000Y-53470000D02*
X48200000Y-54070000D01*
%TO.C,J3*%
X54960000Y-46510000D02*
X54960000Y-45510000D01*
X54160000Y-41090000D02*
X55760000Y-41090000D01*
X60040000Y-45510000D02*
X60040000Y-46510000D01*
X59240000Y-40490000D02*
X59240000Y-41090000D01*
X59790000Y-44980000D02*
X60040000Y-45510000D01*
X58300000Y-41090000D02*
X58300000Y-40490000D01*
X59790000Y-46510000D02*
X59790000Y-45510000D01*
X55210000Y-44980000D02*
X59790000Y-44980000D01*
X54160000Y-40490000D02*
X54160000Y-41090000D01*
X56700000Y-40490000D02*
X56700000Y-41090000D01*
X53580000Y-40490000D02*
X53580000Y-46510000D01*
X54960000Y-45510000D02*
X55210000Y-44980000D01*
X53580000Y-46510000D02*
X61420000Y-46510000D01*
X61420000Y-46510000D02*
X61420000Y-40490000D01*
X61420000Y-40490000D02*
X53580000Y-40490000D01*
X56700000Y-41090000D02*
X58300000Y-41090000D01*
X59240000Y-41090000D02*
X60840000Y-41090000D01*
X53290000Y-41520000D02*
X53290000Y-45520000D01*
X60840000Y-41090000D02*
X60840000Y-40490000D01*
X55210000Y-46510000D02*
X55210000Y-45510000D01*
X55760000Y-41090000D02*
X55760000Y-40490000D01*
X54960000Y-45510000D02*
X60040000Y-45510000D01*
%TO.C,J4*%
X67080000Y-40490000D02*
X67080000Y-46510000D01*
X73290000Y-46510000D02*
X73290000Y-45510000D01*
X74920000Y-40490000D02*
X67080000Y-40490000D01*
X68460000Y-45510000D02*
X73540000Y-45510000D01*
X72740000Y-40490000D02*
X72740000Y-41090000D01*
X67080000Y-46510000D02*
X74920000Y-46510000D01*
X69260000Y-41090000D02*
X69260000Y-40490000D01*
X73290000Y-44980000D02*
X73540000Y-45510000D01*
X66790000Y-41520000D02*
X66790000Y-45520000D01*
X68460000Y-46510000D02*
X68460000Y-45510000D01*
X74920000Y-46510000D02*
X74920000Y-40490000D01*
X68710000Y-46510000D02*
X68710000Y-45510000D01*
X68460000Y-45510000D02*
X68710000Y-44980000D01*
X70200000Y-41090000D02*
X71800000Y-41090000D01*
X67660000Y-40490000D02*
X67660000Y-41090000D01*
X70200000Y-40490000D02*
X70200000Y-41090000D01*
X73540000Y-45510000D02*
X73540000Y-46510000D01*
X72740000Y-41090000D02*
X74340000Y-41090000D01*
X71800000Y-41090000D02*
X71800000Y-40490000D01*
X68710000Y-44980000D02*
X73290000Y-44980000D01*
X67660000Y-41090000D02*
X69260000Y-41090000D01*
X74340000Y-41090000D02*
X74340000Y-40490000D01*
%TO.C,J5*%
X66540000Y-58490000D02*
X66540000Y-59490000D01*
X66290000Y-57960000D02*
X66540000Y-58490000D01*
X63200000Y-53470000D02*
X63200000Y-54070000D01*
X62330000Y-54500000D02*
X62330000Y-58500000D01*
X64000000Y-58490000D02*
X66540000Y-58490000D01*
X62620000Y-53470000D02*
X62620000Y-59490000D01*
X63200000Y-54070000D02*
X64800000Y-54070000D01*
X67340000Y-54070000D02*
X67340000Y-53470000D01*
X65740000Y-54070000D02*
X67340000Y-54070000D01*
X67920000Y-53470000D02*
X62620000Y-53470000D01*
X64250000Y-59490000D02*
X64250000Y-58490000D01*
X64000000Y-58490000D02*
X64250000Y-57960000D01*
X62620000Y-59490000D02*
X67920000Y-59490000D01*
X66290000Y-59490000D02*
X66290000Y-58490000D01*
X64800000Y-54070000D02*
X64800000Y-53470000D01*
X64250000Y-57960000D02*
X66290000Y-57960000D01*
X67920000Y-59490000D02*
X67920000Y-53470000D01*
X64000000Y-59490000D02*
X64000000Y-58490000D01*
X65740000Y-53470000D02*
X65740000Y-54070000D01*
%TO.C,J2*%
X46290000Y-46510000D02*
X46290000Y-45510000D01*
X45740000Y-40490000D02*
X45740000Y-41090000D01*
X40660000Y-41090000D02*
X42260000Y-41090000D01*
X39790000Y-41520000D02*
X39790000Y-45520000D01*
X41460000Y-45510000D02*
X46540000Y-45510000D01*
X43200000Y-41090000D02*
X44800000Y-41090000D01*
X41460000Y-46510000D02*
X41460000Y-45510000D01*
X40660000Y-40490000D02*
X40660000Y-41090000D01*
X40080000Y-46510000D02*
X47920000Y-46510000D01*
X44800000Y-41090000D02*
X44800000Y-40490000D01*
X42260000Y-41090000D02*
X42260000Y-40490000D01*
X41710000Y-44980000D02*
X46290000Y-44980000D01*
X43200000Y-40490000D02*
X43200000Y-41090000D01*
X45740000Y-41090000D02*
X47340000Y-41090000D01*
X47920000Y-40490000D02*
X40080000Y-40490000D01*
X47340000Y-41090000D02*
X47340000Y-40490000D01*
X41460000Y-45510000D02*
X41710000Y-44980000D01*
X47920000Y-46510000D02*
X47920000Y-40490000D01*
X40080000Y-40490000D02*
X40080000Y-46510000D01*
X46540000Y-45510000D02*
X46540000Y-46510000D01*
X46290000Y-44980000D02*
X46540000Y-45510000D01*
X41710000Y-46510000D02*
X41710000Y-45510000D01*
%TO.C,J1*%
X63850000Y-30980000D02*
X63850000Y-31510000D01*
X46870000Y-27090000D02*
X46870000Y-26490000D01*
X63850000Y-31510000D02*
X63850000Y-32510000D01*
X44690000Y-32510000D02*
X70310000Y-32510000D01*
X50350000Y-26490000D02*
X50350000Y-27090000D01*
X70310000Y-32510000D02*
X70310000Y-26490000D01*
X63050000Y-27090000D02*
X64650000Y-27090000D01*
X68130000Y-26490000D02*
X68130000Y-27090000D01*
X50350000Y-27090000D02*
X51950000Y-27090000D01*
X55430000Y-26490000D02*
X55430000Y-27090000D01*
X49410000Y-27090000D02*
X49410000Y-26490000D01*
X67190000Y-27090000D02*
X67190000Y-26490000D01*
X55430000Y-27090000D02*
X57030000Y-27090000D01*
X44690000Y-26490000D02*
X44690000Y-32510000D01*
X46070000Y-32510000D02*
X46070000Y-31510000D01*
X47810000Y-27090000D02*
X49410000Y-27090000D01*
X59570000Y-27090000D02*
X59570000Y-26490000D01*
X46320000Y-32510000D02*
X46320000Y-31510000D01*
X69730000Y-27090000D02*
X69730000Y-26490000D01*
X51950000Y-27090000D02*
X51950000Y-26490000D01*
X52890000Y-26490000D02*
X52890000Y-27090000D01*
X68680000Y-32510000D02*
X68680000Y-31510000D01*
X60510000Y-26490000D02*
X60510000Y-27090000D01*
X63050000Y-26490000D02*
X63050000Y-27090000D01*
X68130000Y-27090000D02*
X69730000Y-27090000D01*
X68680000Y-30980000D02*
X63850000Y-30980000D01*
X57970000Y-27090000D02*
X59570000Y-27090000D01*
X65590000Y-26490000D02*
X65590000Y-27090000D01*
X62110000Y-27090000D02*
X62110000Y-26490000D01*
X47810000Y-26490000D02*
X47810000Y-27090000D01*
X64650000Y-27090000D02*
X64650000Y-26490000D01*
X57030000Y-27090000D02*
X57030000Y-26490000D01*
X46070000Y-31510000D02*
X46320000Y-30980000D01*
X68930000Y-31510000D02*
X68680000Y-30980000D01*
X52890000Y-27090000D02*
X54490000Y-27090000D01*
X45270000Y-27090000D02*
X46870000Y-27090000D01*
X46070000Y-31510000D02*
X51150000Y-31510000D01*
X44400000Y-27520000D02*
X44400000Y-31520000D01*
X51150000Y-30980000D02*
X51150000Y-31510000D01*
X60510000Y-27090000D02*
X62110000Y-27090000D01*
X68930000Y-31510000D02*
X63850000Y-31510000D01*
X57970000Y-26490000D02*
X57970000Y-27090000D01*
X54490000Y-27090000D02*
X54490000Y-26490000D01*
X51150000Y-31510000D02*
X51150000Y-32510000D01*
X70310000Y-26490000D02*
X44690000Y-26490000D01*
X46320000Y-30980000D02*
X51150000Y-30980000D01*
X45270000Y-26490000D02*
X45270000Y-27090000D01*
X68930000Y-32510000D02*
X68930000Y-31510000D01*
X65590000Y-27090000D02*
X67190000Y-27090000D01*
%TD*%
M02*
